<?xml version="1.0" encoding="UTF-8" standalone="no"?>
<!DOCTYPE svg PUBLIC "-//W3C//DTD SVG 1.1//EN" "http://www.w3.org/Graphics/SVG/1.1/DTD/svg11.dtd">
<svg xmlns="http://www.w3.org/2000/svg" xmlns:xlink="http://www.w3.org/1999/xlink" version="1.1">
<metadata>
Created by FontForge 20141024 at Tue Feb  9 23:21:08 2016
 By Jimmy Warting
NovitoNova is a trademark of PYRS Fontlab Ltd. / Made with FontLab.
</metadata>
<defs>
<font id="NovitoNova-Regular" horiz-adv-x="60">
  <font-face font-family="NovitoNova" font-weight="400" font-stretch="normal" units-per-em="1000" panose-1="0 0 0 0 0 0 0 0 0 0" ascent="800" descent="-200" cap-height="628" bbox="-39.0321 -138.215 1308.39 794.128" underline-thickness="50" underline-position="-49" stemh="67" stemv="67" unicode-range="U+0002-2122"/>
<missing-glyph/>
    <glyph glyph-name=".notdef"/>
    <glyph glyph-name="space" unicode=" " horiz-adv-x="210"/>
    <glyph glyph-name="exclam" unicode="!" horiz-adv-x="159" d="M112 186c0 -42 -65 -42 -65 0v438c0 41 65 41 65 0v-438zM79 114c28 0 50 -22 50 -50c0 -27 -22 -49 -50 -49c-27 0 -49 22 -49 49c0 28 22 50 49 50z"/>
    <glyph glyph-name="quotedbl" unicode="&quot;" horiz-adv-x="217" d="M64 626c19 -1 32 -16 33 -38c0 -26 -12 -51 -28 -72c-7 -7 -20 -6 -26 0c-8 8 -7 18 0 26c5 7 10 16 13 24c-15 2 -26 15 -26 30c0 9 4 17 10 23c2 3 5 6 11 7c3 0 6 1 9 0v0h4zM154 626c19 -1 32 -16 33 -38c0 -26 -12 -51 -28 -72c-7 -7 -20 -6 -26 0c-8 8 -7 18 0 26 c5 7 10 16 13 24c-15 2 -26 15 -26 30c0 9 4 17 10 23c2 3 5 6 11 7c3 0 6 1 9 0v0h4z"/>
    <glyph glyph-name="numbersign" unicode="#" horiz-adv-x="484" d="M420 481c45 0 45 -70 0 -70h-63c-11 -42 -23 -84 -35 -125c20 0 40 0 59 -1c45 -1 46 -71 0 -70c-26 1 -52 1 -78 1c-11 -38 -22 -76 -34 -114c-4 -13 -8 -27 -14 -40c-14 -32 -55 -22 -66 6c-4 9 -1 20 5 28c1 5 3 10 4 15c6 16 11 32 15 49c6 19 11 37 17 56 c-18 0 -35 1 -53 1c-14 -45 -28 -89 -48 -132c-19 -41 -79 -5 -60 35c14 32 25 65 35 97c-13 1 -27 1 -40 1c-45 1 -45 72 0 70c21 0 42 0 62 -1c8 23 16 45 23 68c5 17 10 35 14 53c-20 0 -41 -1 -61 -1c-46 0 -46 71 0 71h77c8 33 17 66 31 98c7 17 33 21 48 12 c18 -10 20 -30 12 -48c-8 -20 -14 -40 -20 -61c17 0 34 1 52 1c8 34 15 69 20 103c3 19 26 29 43 25c20 -6 27 -24 24 -43c-4 -28 -9 -56 -15 -84h46zM240 107v0s1 0 1 -1c0 1 0 1 -1 1zM193 95v-1v1zM194 97c3 4 6 7 10 9c-6 -3 -9 -6 -10 -9zM256 310c9 33 18 66 27 100 c-16 -1 -32 -1 -49 -1c-7 -31 -14 -62 -24 -91c-4 -11 -7 -21 -11 -31c17 0 34 -1 50 -1c2 8 5 16 7 24z"/>
    <glyph glyph-name="dollar" unicode="$" horiz-adv-x="358" d="M292 292c27 -37 44 -87 32 -133c-14 -47 -52 -80 -99 -94c-3 -1 -7 -2 -10 -3c-1 -9 -1 -18 -1 -27c-2 -45 -73 -45 -72 0c1 7 1 13 1 20c-16 2 -32 7 -45 17c-39 28 -56 70 -67 115c-11 44 58 63 69 19c7 -28 18 -72 47 -79c2 61 6 121 10 182c-22 11 -42 23 -57 42 c-31 38 -44 81 -36 130c6 40 26 78 59 103c17 12 40 21 63 23c1 3 1 5 1 8c3 19 27 29 44 24c20 -5 27 -24 25 -43c-1 -2 -1 -4 -1 -6c34 -26 69 -65 73 -110c3 -46 -68 -46 -71 0c0 -5 0 0 -1 2c-3 5 -6 10 -9 14c-1 2 -2 4 -3 5c-6 -51 -10 -102 -14 -154 c23 -14 44 -31 62 -55zM133 466c-5 -28 6 -57 29 -77c4 48 9 96 15 143c-27 -11 -40 -38 -44 -66zM254 173c9 33 -7 66 -30 90l-6 -126c17 8 31 19 36 36z"/>
    <glyph glyph-name="percent" unicode="%" horiz-adv-x="408" d="M305 171c37 0 67 -29 67 -66s-30 -66 -67 -66c-36 0 -66 29 -66 66s30 66 66 66zM96 405c-36 0 -66 29 -66 66s30 66 66 66c37 0 67 -29 67 -66s-30 -66 -67 -66zM295 616c16 52 97 30 80 -22c-39 -123 -100 -241 -155 -358c-27 -56 -54 -113 -82 -169 c-7 -13 -13 -26 -21 -38c-19 -29 -70 -34 -79 7c-6 26 11 45 31 50c-1 0 -1 1 -2 1c-10 -2 -19 -12 -23 -17l2 2c1 2 2 4 3 5l9 18c9 18 19 36 28 54c26 54 52 109 77 163c47 101 98 200 132 304z"/>
    <glyph glyph-name="ampersand" unicode="&amp;" horiz-adv-x="394" d="M345 74c42 -23 5 -85 -37 -64c-21 11 -40 25 -58 40c-25 -24 -65 -39 -95 -43c-61 -7 -110 26 -122 88c-11 56 12 103 40 150c7 11 14 22 22 32c-11 27 -20 55 -26 83c-13 57 -24 124 3 179c23 48 67 94 123 96c60 3 105 -46 100 -106c-5 -64 -24 -122 -59 -176 c-18 -29 -39 -56 -58 -84c36 -80 92 -155 167 -195zM131 428c3 -26 8 -52 16 -77c10 14 20 29 30 45c15 26 29 54 37 84c4 18 16 53 6 71c-24 42 -75 -27 -85 -49c-9 -20 -6 -51 -4 -74zM173 88c8 3 17 8 24 14v0c-25 30 -46 63 -65 97v0c-11 -18 -24 -38 -28 -59 c-4 -17 2 -52 17 -60c13 -6 38 2 52 8z"/>
    <glyph glyph-name="quoteright" unicode="’" horiz-adv-x="137" d="M69 80c22 -2 37 -18 38 -44c0 -30 -14 -58 -33 -82c-7 -9 -22 -7 -29 0c-9 9 -8 21 0 30c6 8 11 17 15 27c-17 2 -30 17 -30 34c0 11 4 20 11 26c3 4 7 7 13 8c4 1 7 1 11 1v0h4z"/>
    <glyph glyph-name="parenleft" unicode="(" horiz-adv-x="216" d="M143 657c22 26 58 -11 37 -37l-3 -3c-3 -5 5 6 1 1c-1 -1 -2 -3 -3 -4c-8 -11 -15 -22 -21 -33c-22 -37 -38 -74 -50 -115c-41 -143 -20 -292 36 -427c6 -13 -5 -29 -18 -32c-15 -4 -27 5 -32 18c-60 144 -81 307 -35 458c18 61 46 125 88 174z"/>
    <glyph glyph-name="parenright" unicode=")" horiz-adv-x="216" d="M74 647c42 -49 69 -113 88 -174c45 -151 24 -314 -36 -458c-5 -13 -17 -21 -32 -17c-12 2 -24 18 -18 31c56 135 77 284 36 427c-12 41 -28 78 -49 115l-21 33c-2 1 -3 3 -4 4c-3 5 5 -6 1 -1c-1 1 -2 2 -2 3c-22 26 15 63 37 37z"/>
    <glyph glyph-name="asterisk" unicode="*" horiz-adv-x="299" d="M135 597c2 24 41 25 39 0c-5 -70 -10 -139 -10 -208c0 -25 -39 -25 -39 0c0 69 5 138 10 208zM255 485c24 -7 14 -45 -10 -38c-67 20 -133 39 -201 54c-25 5 -14 43 10 37c68 -14 135 -34 201 -53zM223 416c14 -21 -20 -41 -33 -20c-37 59 -74 118 -114 174 c-15 20 19 40 33 19c41 -56 78 -114 114 -173zM86 409c-18 -16 -46 11 -27 28c52 45 104 91 154 139c17 18 45 -9 27 -27c-49 -49 -101 -94 -154 -140z"/>
    <glyph glyph-name="plus" unicode="+" horiz-adv-x="282" d="M228 354c31 0 31 -49 0 -49c-22 0 -43 1 -65 2c-1 -22 -2 -45 0 -67c3 -32 -45 -31 -48 0c-3 23 -2 46 -1 70c-20 1 -40 1 -60 1c-32 -1 -32 48 0 48c21 1 42 1 64 0c1 22 2 44 1 66c-2 32 47 31 49 0c1 -23 0 -46 -1 -69c20 -1 40 -2 61 -2z"/>
    <glyph glyph-name="comma" unicode="," horiz-adv-x="137" d="M69 80c22 -2 37 -18 38 -44c0 -30 -14 -58 -33 -82c-7 -9 -22 -7 -29 0c-9 9 -8 21 0 30c6 8 11 17 15 27c-17 2 -30 17 -30 34c0 11 4 20 11 26c3 4 7 7 13 8c4 1 7 1 11 1v0h4z"/>
    <glyph glyph-name="hyphen" unicode="-" horiz-adv-x="271" d="M215 355c35 1 35 -53 0 -54c-64 -2 -95 1 -159 1c-35 0 -35 54 0 54c64 -1 95 -3 159 -1z"/>
    <glyph glyph-name="period" unicode="." horiz-adv-x="132" d="M30 42c0 20 16 36 36 36s36 -16 36 -36s-16 -36 -36 -36s-36 16 -36 36z"/>
    <glyph glyph-name="slash" unicode="/" horiz-adv-x="249" d="M84 26c-8 -33 -62 -20 -53 14c2 9 4 17 6 26c43 173 86 347 128 520c9 35 62 20 53 -14c-2 -9 -4 -17 -6 -26c-43 -173 -85 -347 -128 -520z"/>
    <glyph glyph-name="zero" unicode="0" horiz-adv-x="511" d="M340 619c102 -59 141 -188 141 -299c1 -72 -16 -149 -55 -211c-31 -49 -79 -98 -139 -106c-113 -16 -195 70 -231 169c-41 113 -36 256 30 360c54 85 157 142 254 87zM267 73c107 20 141 156 142 247c0 30 -3 60 -11 89c-18 71 -85 198 -180 152 c-99 -49 -124 -188 -112 -288c6 -52 24 -110 59 -150c24 -29 62 -58 102 -50z"/>
    <glyph glyph-name="one" unicode="1" horiz-adv-x="213" d="M116 627c21 26 67 21 67 -19v-570c0 -46 -72 -46 -72 0v465c-4 -6 -9 -11 -13 -17c-12 -16 -31 -24 -50 -13c-15 9 -25 34 -13 49z"/>
    <glyph glyph-name="two" unicode="2" horiz-adv-x="324" d="M292 452c-5 -59 -20 -117 -47 -169c-37 -71 -75 -141 -116 -209h127c45 0 45 -71 0 -71h-190c-26 0 -45 30 -30 53c46 73 86 148 127 224c24 45 45 89 54 139c7 35 14 84 -3 117c-15 30 -52 35 -82 24c-17 -7 -25 -21 -29 -42c-1 -8 -2 -21 -2 -34c1 -6 1 -12 2 -18v-2 v-1c1 -2 1 -4 1 -6c2 -11 5 -22 8 -33c14 -43 -54 -61 -68 -18c-14 44 -21 100 -5 145c13 37 40 67 79 78c44 12 104 8 137 -28c35 -41 42 -98 37 -149z"/>
    <glyph glyph-name="three" unicode="3" horiz-adv-x="355" d="M251 420c51 -62 80 -157 74 -237c-6 -67 -41 -135 -106 -163c-61 -26 -125 -21 -178 20c-16 13 -13 39 0 53c15 15 36 12 52 0c27 -23 69 -22 98 -5c37 21 60 59 60 102c1 58 -13 121 -46 170c-11 16 -26 35 -45 39c-16 4 -30 -8 -42 -20c-31 -30 -77 8 -58 45 c25 50 59 96 82 146h-67c-47 0 -47 73 0 73h121c24 0 43 -23 36 -46c-14 -45 -37 -86 -60 -126c32 -5 59 -26 79 -51z"/>
    <glyph glyph-name="four" unicode="4" horiz-adv-x="315" d="M213 607c0 46 72 46 72 0v-566c0 -45 -72 -45 -72 0v161h-147c-18 0 -38 17 -36 36c15 124 29 248 43 373c2 19 15 35 36 35c18 0 38 -16 36 -35c-13 -113 -26 -225 -39 -337h107v333z"/>
    <glyph glyph-name="five" unicode="5" horiz-adv-x="363" d="M263 415c61 -66 80 -164 65 -252c-12 -68 -54 -125 -121 -148c-48 -15 -104 -15 -152 1c-44 15 -25 85 19 70c34 -12 68 -14 102 -5c41 12 70 43 80 90c12 60 3 141 -40 189c-34 37 -82 52 -129 30c-24 -11 -54 2 -54 31c0 62 1 124 0 186c-1 20 16 36 36 36h98 c47 0 47 -72 0 -72h-61c0 -34 0 -68 -1 -102c58 9 116 -8 158 -54z"/>
    <glyph glyph-name="six" unicode="6" horiz-adv-x="424" d="M373 263c38 -80 27 -181 -54 -231c-70 -43 -186 -47 -243 23c-16 21 -28 43 -35 66c-3 5 -4 10 -5 16v2c-14 63 -2 132 17 194c29 101 75 196 121 289c21 41 83 5 62 -36c-30 -60 -60 -121 -84 -184c-8 -20 -16 -41 -23 -63c10 6 22 11 35 14c80 22 173 -12 209 -90z M317 132c13 28 6 72 -5 95c-26 51 -79 72 -129 57c-24 -7 -46 -21 -59 -43c-16 -28 -20 -61 -17 -96c5 -19 14 -36 29 -50c26 -22 65 -28 97 -21c35 7 69 24 84 58z"/>
    <glyph glyph-name="seven" unicode="7" horiz-adv-x="398" d="M332 647c27 0 45 -31 31 -55c-42 -71 -79 -148 -111 -225c-43 -103 -80 -215 -90 -324c-4 -46 -77 -46 -73 0c11 122 49 239 96 351c26 61 53 122 84 180c-68 1 -136 1 -204 1c-47 0 -47 73 0 73c89 0 178 0 267 -1z"/>
    <glyph glyph-name="eight" unicode="8" horiz-adv-x="498" d="M468 229v-5c0 -18 -2 -37 -7 -54c-30 -111 -141 -182 -254 -161c-111 22 -189 128 -175 241c8 71 54 134 115 168c-22 24 -36 55 -35 90c3 73 61 139 137 137c74 -2 130 -57 136 -130v-7v-6c-3 -32 -16 -62 -36 -85c69 -36 116 -106 119 -188zM249 574 c-35 -1 -67 -29 -66 -66c3 -84 130 -84 131 0c1 35 -29 67 -65 66zM249 76c82 1 148 66 148 148c0 80 -66 149 -148 148c-80 -2 -150 -66 -148 -148c1 -80 66 -149 148 -148z"/>
    <glyph glyph-name="nine" unicode="9" horiz-adv-x="426" d="M395 483c7 -91 -30 -186 -72 -264c-44 -80 -104 -165 -187 -209c-41 -21 -78 41 -37 63c67 35 116 103 152 167c10 17 19 34 28 52c-20 -7 -40 -11 -61 -11c-111 -3 -193 91 -188 201c5 97 90 161 184 163c83 2 150 -44 173 -119c3 -6 6 -12 6 -19c1 -8 1 -16 2 -24z M114 415c26 -51 80 -72 130 -58c24 7 47 22 60 45c14 23 20 51 19 79c-2 26 -10 50 -31 68c-26 23 -66 29 -98 22c-35 -8 -70 -25 -86 -59c-12 -29 -6 -73 6 -97z"/>
    <glyph glyph-name="colon" unicode=":" horiz-adv-x="125" d="M63 327c-18 0 -33 14 -33 32s15 33 33 33s32 -15 32 -33s-14 -32 -32 -32zM63 69c18 0 32 -14 32 -32s-14 -33 -32 -33s-33 15 -33 33s15 32 33 32z"/>
    <glyph glyph-name="semicolon" unicode=";" horiz-adv-x="136" d="M71 322c-20 0 -36 16 -36 36s16 36 36 36c19 0 35 -16 35 -36s-16 -36 -35 -36zM67 63c21 -1 36 -17 37 -41c0 -29 -13 -57 -31 -79c-7 -9 -22 -7 -29 0c-8 8 -7 20 0 28c6 8 11 17 15 27c-16 2 -29 15 -29 32c0 10 4 19 11 25c2 4 6 7 12 8c4 0 7 1 10 1v0c2 0 3 0 4 -1 z"/>
    <glyph glyph-name="less" unicode="&lt;" horiz-adv-x="211" d="M110 330c22 -26 45 -52 67 -79c22 -26 -44 -49 -66 -23c-26 30 -51 60 -77 90c-15 18 17 43 30 59c13 15 26 31 39 46c23 26 89 3 66 -23c-20 -23 -39 -47 -59 -70z"/>
    <glyph glyph-name="equal" unicode="=" horiz-adv-x="289" d="M228 391c31 3 34 -46 3 -49c-59 -5 -117 -2 -176 -5c-31 -2 -34 47 -3 49c59 4 117 0 176 5zM234 293c31 3 34 -46 3 -49c-59 -5 -117 -2 -176 -5c-31 -2 -34 47 -3 49c59 3 117 0 176 5z"/>
    <glyph glyph-name="greater" unicode="&gt;" horiz-adv-x="211" d="M102 330c-20 23 -40 47 -60 70c-22 26 44 49 66 23c13 -15 26 -31 40 -46c13 -16 45 -41 29 -59c-25 -30 -51 -60 -76 -90c-23 -26 -89 -3 -66 23c22 27 44 53 67 79z"/>
    <glyph glyph-name="question" unicode="?" horiz-adv-x="234" d="M106 100c28 0 50 -23 50 -50c0 -28 -22 -50 -50 -50c-27 0 -50 22 -50 50c0 27 23 50 50 50zM204 491c1 -61 -6 -122 -30 -178c-18 -44 -36 -84 -40 -135c-4 -41 -70 -42 -66 0c4 46 15 88 34 130c14 34 28 69 33 109c5 32 4 65 3 97c-1 18 -4 46 -15 57c-2 3 0 2 -4 4 c1 0 0 0 -1 -1c3 1 2 1 1 0c2 1 -5 -5 -5 -5c-12 -15 -17 -42 -18 -63c-4 -42 -69 -42 -66 0c5 52 25 138 93 134c72 -4 81 -96 81 -149z"/>
    <glyph glyph-name="at" unicode="@" horiz-adv-x="534" d="M485 226c16 -9 25 -34 13 -50c-49 -65 -120 -110 -203 -110c-72 1 -145 31 -195 83c-67 71 -89 170 -53 262c41 101 154 164 261 154c109 -9 207 -88 187 -206c-7 -42 -31 -90 -71 -110c-32 -17 -65 -15 -93 -1c-27 -32 -69 -51 -113 -34c-58 23 -78 82 -56 140 c19 48 70 76 120 61c42 -13 78 -50 74 -97c6 -4 13 -8 17 -8c9 0 14 0 21 7c26 24 37 66 26 101c-13 43 -61 67 -103 73c-97 14 -195 -47 -212 -145c-14 -81 38 -156 110 -189c78 -36 167 -12 219 56c13 16 32 24 51 13zM238 285c19 -6 36 1 45 24c-1 3 -1 5 -1 8 c2 16 -3 23 -19 27c-14 3 -24 3 -32 -14c-3 -9 -5 -28 -4 -33c2 -5 5 -10 11 -12z"/>
    <glyph glyph-name="A" unicode="A" horiz-adv-x="342" d="M312 34c4 -42 -64 -42 -68 0c-5 53 -10 105 -15 158h-112c-7 -53 -14 -105 -19 -158c-5 -42 -72 -42 -68 0c8 76 18 151 30 227c18 119 37 243 82 356c6 14 17 25 33 25h47c20 0 32 -16 34 -34c19 -191 37 -383 56 -574zM127 259h95c-9 101 -19 201 -29 301 c-33 -96 -50 -200 -66 -301z"/>
    <glyph glyph-name="B" unicode="B" horiz-adv-x="249" d="M206 191c6 -18 7 -38 7 -57c0 -20 3 -44 -5 -64c-23 -61 -90 -73 -149 -63c-8 1 -13 4 -17 9c-7 5 -12 14 -12 25v560c0 9 2 15 6 20c3 9 11 17 23 19c35 6 77 5 107 -15c51 -32 49 -88 52 -142c3 -75 3 -184 -54 -237c19 -13 35 -31 42 -55zM147 534c-1 17 -6 28 -18 35 c-10 4 -20 6 -31 6v-291c27 6 40 39 46 69c9 41 8 84 6 126c-1 18 -2 36 -3 55zM144 92c5 22 4 57 -2 77c-6 18 -24 28 -44 35v-133c4 0 8 0 12 1c3 0 17 3 21 5c8 4 11 7 13 15z"/>
    <glyph glyph-name="C" unicode="C" horiz-adv-x="284" d="M187 174c12 42 78 24 65 -18c-11 -37 -17 -80 -40 -113c-27 -39 -67 -50 -110 -29c-9 4 -14 10 -16 17c-15 23 -23 51 -28 77c-9 39 -14 78 -18 117c-6 67 -13 137 -9 204c3 39 8 79 19 117c8 29 20 66 45 86c74 61 137 -42 157 -104c13 -41 -52 -59 -65 -18 c-6 19 -14 40 -27 55c-6 8 -14 16 -19 18c-1 0 -1 -1 -3 -3c-4 -4 -10 -15 -14 -24c-20 -54 -28 -114 -26 -171c3 -59 5 -118 12 -177c5 -44 9 -101 31 -138c2 -1 3 -1 4 -1c0 0 3 1 4 3c5 5 12 16 15 25c10 25 16 51 23 77zM143 584c-2 -1 -2 0 -2 -1c1 0 0 0 2 1z"/>
    <glyph glyph-name="D" unicode="D" horiz-adv-x="285" d="M193 605c62 -73 64 -178 62 -268c-1 -53 -3 -107 -12 -159c-6 -35 -15 -71 -33 -102c-32 -53 -86 -74 -146 -71c-6 1 -12 2 -16 5c-10 5 -18 14 -18 29v578c0 15 10 28 25 32c7 2 15 3 23 4c43 3 87 -16 115 -48zM183 242c5 56 7 115 4 172c-2 40 -8 85 -27 121 c-13 23 -22 34 -42 44c-2 1 -3 1 -3 1s-2 1 -4 1c-4 2 -8 3 -12 4h-2v-512c2 1 3 1 3 1c6 1 11 2 17 4c0 1 1 1 2 1v0c2 1 5 3 7 4s4 2 5 3s3 3 4 3c2 2 10 12 9 9c7 10 14 23 16 30c14 36 20 75 23 114z"/>
    <glyph glyph-name="E" unicode="E" horiz-adv-x="240" d="M178 74c43 0 43 -67 0 -67h-115c-18 0 -33 16 -33 34v570c0 18 15 33 33 33h115c43 0 43 -67 0 -67h-82v-257h69c43 0 43 -67 0 -67h-69v-179h82z"/>
    <glyph glyph-name="F" unicode="F" horiz-adv-x="252" d="M188 585h-87v-173h73c46 0 46 -68 0 -68h-73v-306c0 -42 -71 -42 -71 0v580c0 19 16 34 36 34h122c46 0 46 -67 0 -67z"/>
    <glyph glyph-name="G" unicode="G" horiz-adv-x="314" d="M283 169c5 -48 -7 -106 -43 -141c-33 -29 -74 -37 -114 -21c-3 1 -6 2 -9 4c-6 3 -10 6 -12 10c-50 47 -62 122 -68 187s-9 135 -5 200c2 41 9 83 21 122c10 31 24 67 49 90c24 23 60 32 90 12c39 -24 60 -68 74 -110c13 -42 -52 -59 -65 -18c-6 19 -13 39 -26 54 c-7 8 -15 16 -20 18h-1v0c-4 -2 -2 0 -5 -3c-7 -7 -13 -16 -18 -27c-25 -51 -34 -111 -32 -167c1 -57 -1 -114 5 -171c4 -43 13 -114 47 -139c20 -10 39 -1 50 17c9 16 14 32 15 49h-45c-43 0 -43 67 0 67h78c20 0 31 -15 34 -33zM154 576c1 0 1 1 1 1l-1 -1v0z"/>
    <glyph glyph-name="H" unicode="H" horiz-adv-x="271" d="M173 601c0 43 68 43 68 0v-567c0 -42 -68 -42 -68 0v248c-25 -1 -50 0 -75 3v-251c0 -42 -68 -42 -68 0v567c0 43 68 43 68 0v-248c24 -4 53 -5 75 -4v252z"/>
    <glyph glyph-name="I" unicode="I" horiz-adv-x="126" d="M30 594c0 43 66 43 66 0v-562c0 -42 -66 -42 -66 0v562z"/>
    <glyph glyph-name="J" unicode="J" horiz-adv-x="297" d="M266 267c2 -79 4 -184 -59 -243c-2 -4 -6 -8 -12 -10c-2 -3 -6 -4 -9 -5c-40 -15 -86 -9 -116 26c-31 37 -45 86 -39 135c3 18 14 33 34 33c16 0 35 -15 33 -33c-4 -30 -1 -62 17 -86c12 -16 29 -22 47 -13c21 16 31 60 34 90c5 44 5 88 3 132c-3 105 2 211 -6 316 c-3 43 63 43 66 0c6 -74 6 -150 4 -225c-1 -39 3 -78 3 -117z"/>
    <glyph glyph-name="K" unicode="K" horiz-adv-x="283" d="M329 -58c42 -11 24 -76 -18 -65c-37 10 -62 44 -76 78c-19 42 -31 86 -40 131c-13 59 -23 181 -98 192v-243c0 -42 -67 -42 -67 0v566c0 43 67 43 67 0v-197c38 64 59 139 76 211c11 41 75 24 65 -18c-22 -90 -51 -183 -105 -259c74 -27 102 -121 118 -196 c9 -44 18 -89 33 -132c6 -17 14 -35 24 -51c3 -4 7 -9 12 -14c0 1 2 -1 4 -2c1 0 4 -1 5 -1z"/>
    <glyph glyph-name="L" unicode="L" horiz-adv-x="260" d="M197 68c44 0 44 -68 0 -68h-133c-19 0 -34 15 -34 34v563c0 44 68 44 68 0v-529h99z"/>
    <glyph glyph-name="M" unicode="M" horiz-adv-x="335" d="M242 618c10 34 63 28 63 -9v-573c0 -41 -65 -41 -65 0v353c-12 -42 -25 -84 -38 -126c-9 -32 -53 -31 -62 0c-15 46 -30 92 -45 139v-370c0 -41 -65 -41 -65 0v577c0 37 53 43 64 9c25 -79 51 -158 76 -238c24 80 48 159 72 238z"/>
    <glyph glyph-name="N" unicode="N" horiz-adv-x="291" d="M194 612c0 43 67 43 67 0v-567c0 -38 -55 -45 -65 -9l-99 339v-339c0 -42 -67 -42 -67 0v571c0 38 55 45 65 9l99 -339v335z"/>
    <glyph glyph-name="O" unicode="O" horiz-adv-x="266" d="M245 441c6 -51 7 -103 3 -155c-3 -45 -7 -93 -19 -137c-11 -36 -18 -77 -39 -108c-27 -39 -66 -50 -109 -29c-9 4 -14 10 -16 17c-16 24 -23 54 -29 81c-8 38 -13 77 -16 117c-6 65 -13 134 -8 200c3 45 9 92 25 134c13 32 32 72 69 79c44 8 80 -29 99 -64 c24 -42 34 -88 40 -135zM131 573l-13 2zM125 67v0zM169 189c18 93 24 197 2 289c-7 30 -20 80 -50 96h-1l-5 -5c-9 -14 -15 -28 -20 -44c-22 -78 -18 -158 -13 -238c3 -45 6 -90 14 -134c5 -30 10 -61 24 -86c1 0 2 0 3 -1v1h1c1 1 2 1 2 1v0c1 1 3 2 4 4c6 7 12 20 16 31 c9 28 18 57 23 86z"/>
    <glyph glyph-name="P" unicode="P" horiz-adv-x="252" d="M220 469c2 -49 6 -109 -13 -156c-10 -25 -24 -49 -49 -62c-19 -9 -40 -10 -60 -8v-210c0 -43 -68 -43 -68 0v563c0 15 8 25 19 30c4 2 9 3 15 4c48 2 104 -5 132 -49c21 -33 22 -75 24 -112zM149 361c6 37 5 76 3 114c-1 11 -2 30 -3 37c-2 13 -5 24 -9 31 c-4 6 -11 12 -22 15c-7 2 -13 3 -20 4v-252h1c11 -2 26 -3 34 6c11 12 14 30 16 45z"/>
    <glyph glyph-name="Q" unicode="Q" horiz-adv-x="356" d="M351 56c23 -36 -34 -69 -58 -34c-13 20 -28 38 -43 56c-7 -12 -14 -24 -23 -34c-29 -33 -70 -42 -110 -28c-6 1 -12 4 -17 9c-24 25 -37 61 -45 94c-10 43 -15 88 -19 132c-6 74 -12 151 3 225c14 67 51 185 141 169c42 -7 77 -45 96 -81c23 -43 33 -91 37 -138 c8 -92 -2 -191 -34 -278l-1 -1c26 -29 51 -58 73 -91zM202 119c2 3 3 6 4 9c-6 7 -12 15 -18 22c-11 15 -14 33 0 48c11 10 32 13 44 3c2 7 3 14 5 20c20 91 30 197 -2 286c-9 26 -36 78 -67 79c-11 0 -18 -4 -28 -16c-10 -13 -18 -28 -23 -43c-29 -77 -27 -153 -22 -233 c2 -44 5 -89 14 -133c6 -29 13 -67 31 -89c11 -3 23 -4 32 3c14 12 23 28 30 44z"/>
    <glyph glyph-name="R" unicode="R" horiz-adv-x="297" d="M323 -64c43 -11 24 -76 -19 -66c-38 10 -63 45 -78 79c-19 43 -31 87 -41 133c-13 56 -22 168 -86 191v-242c0 -43 -69 -43 -69 0v556c0 7 2 14 5 18c4 13 15 23 32 24c48 3 101 -3 133 -44c21 -28 23 -67 25 -100c3 -49 4 -105 -16 -151c-7 -16 -17 -29 -29 -38 c34 -42 51 -105 63 -157c9 -45 18 -90 34 -134c6 -17 14 -35 25 -52c2 -3 7 -9 12 -13l4 -2c1 -1 4 -2 5 -2zM136 553c-5 2 -8 4 -13 5c-8 2 -16 3 -24 3v-217h3c12 -2 29 -4 37 7c10 11 13 26 15 39c5 35 5 71 1 105c-1 20 -2 38 -13 53c2 -2 -5 4 -6 5z"/>
    <glyph glyph-name="S" unicode="S" horiz-adv-x="277" d="M217 284c24 -47 34 -95 28 -147c-8 -63 -51 -147 -129 -128c-82 21 -91 127 -84 196c2 18 14 33 33 33c17 0 36 -15 34 -33c-4 -34 -6 -76 9 -105c3 -7 8 -14 10 -16c1 -2 3 -4 5 -5c0 -1 3 -3 4 -3c1 -1 5 -2 5 -2s1 0 1 -1h5h1v0c3 1 4 1 4 1l1 1c2 1 4 2 6 4 c-1 -1 8 7 10 10c5 5 12 22 15 33c11 44 6 89 -15 128c-24 45 -58 84 -79 130c-20 44 -37 102 -36 151c1 45 23 97 69 111c30 10 66 1 87 -23c31 -37 35 -86 29 -133c-2 -18 -13 -33 -33 -33c-17 0 -35 15 -33 33c2 21 4 44 -1 65c-2 7 -4 13 -8 19c-1 1 -7 7 -4 5 c-2 1 -7 3 -8 4c-2 0 -4 1 -2 0c-1 1 -2 1 -3 0h-3h-2v-1c-1 0 -3 -2 -4 -2c-6 -7 -12 -15 -15 -25c-5 -23 -1 -47 5 -70s9 -46 20 -67c22 -46 55 -85 78 -130z"/>
    <glyph glyph-name="T" unicode="T" horiz-adv-x="275" d="M242 645c44 0 44 -68 0 -68h-63v-540c0 -42 -67 -42 -67 0v540h-80c-42 0 -42 68 0 68h210z"/>
    <glyph glyph-name="U" unicode="U" horiz-adv-x="327" d="M32 597c4 42 70 43 67 0c-1 -7 -2 -15 -2 -22c-1 -54 5 -107 3 -161c0 -38 -2 -76 -1 -114c1 -46 4 -92 13 -137c5 -19 9 -40 18 -57c3 -6 9 -15 11 -17s13 -12 8 -8c3 -3 6 -5 9 -7c2 0 10 -3 3 -1c3 -1 5 -2 8 -2h3c2 0 10 2 2 0c1 0 10 3 4 0c7 4 7 4 12 10 c29 33 31 92 35 134c12 129 4 260 -7 389c-4 43 63 42 67 0c6 -77 11 -154 12 -232c1 -59 -1 -118 -8 -177c-6 -50 -11 -106 -41 -148c-45 -62 -127 -49 -167 11c-23 35 -33 78 -39 120c-7 47 -10 95 -10 143c0 39 2 78 2 117c-1 53 -7 106 -2 159z"/>
    <glyph glyph-name="V" unicode="V" horiz-adv-x="322" d="M259 635c16 0 35 -16 33 -34c-22 -187 -45 -375 -67 -562c-2 -18 -14 -34 -34 -34c-15 0 -35 -3 -48 5c-11 6 -15 17 -19 27c-6 18 -10 36 -13 54c-14 65 -24 130 -35 195c-16 102 -31 204 -45 306c-3 18 4 36 23 42c16 4 39 -6 41 -24c13 -90 26 -180 40 -270 c10 -64 21 -128 32 -192c1 -3 2 -7 2 -10c19 154 38 309 56 463c2 18 14 34 34 34z"/>
    <glyph glyph-name="W" unicode="W" horiz-adv-x="395" d="M297 610c4 43 71 43 67 0c-6 -94 -14 -188 -21 -283c-5 -65 -11 -131 -17 -197c-2 -22 -4 -44 -7 -65c-2 -12 -2 -27 -6 -38c-6 -14 -16 -25 -33 -25h-16c-13 0 -30 10 -32 25c-12 81 -23 163 -35 244c-11 -81 -23 -163 -34 -244c-2 -15 -19 -25 -33 -25h-16 c-16 0 -26 11 -32 25c-5 12 -5 27 -7 40c-2 22 -5 44 -7 67c-6 66 -12 132 -17 198c-7 93 -14 185 -21 278c-3 43 64 43 67 0c7 -93 14 -185 21 -278c3 -31 5 -62 8 -93l39 279c1 8 7 14 14 18c2 2 6 4 9 5s6 1 9 1v0h1c3 0 6 0 8 -1c4 -1 7 -3 10 -5c7 -4 12 -10 14 -18 l39 -279c3 33 5 65 8 97c7 92 14 183 20 274z"/>
    <glyph glyph-name="X" unicode="X" horiz-adv-x="351" d="M319 51c7 -17 -7 -37 -24 -42c-19 -5 -35 7 -42 24v0c-25 63 -49 125 -74 187c-17 -63 -35 -127 -53 -190c-11 -41 -77 -24 -65 18v0c25 93 51 185 76 277l-105 267c-7 17 7 37 24 42c19 5 35 -7 42 -24v-1c23 -59 46 -117 70 -176c17 63 35 126 52 189 c12 42 78 24 66 -18v0c-26 -92 -51 -184 -77 -276c37 -92 73 -185 110 -277z"/>
    <glyph glyph-name="Y" unicode="Y" horiz-adv-x="297" d="M203 613c11 40 74 23 62 -18c-25 -87 -49 -174 -74 -261v-297c0 -41 -65 -41 -65 0v259c-2 3 -4 6 -5 10c-37 94 -66 191 -90 289c-10 41 52 58 62 18c16 -65 35 -129 55 -193c19 64 37 129 55 193z"/>
    <glyph glyph-name="Z" unicode="Z" horiz-adv-x="306" d="M242 630c21 0 39 -22 32 -42c-55 -174 -110 -347 -165 -521h88c43 0 43 -67 0 -67h-133c-21 0 -39 22 -33 42c55 174 110 347 165 521h-108c-43 0 -43 67 0 67h154z"/>
    <glyph glyph-name="bracketleft" unicode="[" horiz-adv-x="194" d="M142 55c30 0 30 -47 0 -47h-89c-12 0 -23 11 -23 23v129v465c0 12 11 23 23 23h89s30 -47 0 -47h-65v-105v-441h65z"/>
    <glyph glyph-name="backslash" unicode="\" horiz-adv-x="262" d="M174 26c-45 185 -90 370 -136 555c-2 9 -5 18 -7 27c-9 37 48 53 57 16c45 -185 91 -370 136 -555c2 -9 5 -18 7 -27c9 -37 -48 -51 -57 -16z"/>
    <glyph glyph-name="bracketright" unicode="]" horiz-adv-x="194" d="M53 55h65v441v105h-65c-31 0 -31 47 0 47h88c13 0 23 -11 23 -23v-465v-129c0 -12 -10 -23 -23 -23h-88c-31 0 -31 47 0 47z"/>
    <glyph glyph-name="asciicircum" unicode="^"/>
    <glyph glyph-name="underscore" unicode="_" horiz-adv-x="376" d="M315 64c42 2 41 -63 0 -64c-77 -1 -177 0 -254 0c-41 0 -41 64 0 64c77 0 178 -2 254 0z"/>
    <glyph glyph-name="quoteleft" unicode="‘"/>
    <glyph glyph-name="a" unicode="a"/>
    <glyph glyph-name="b" unicode="b"/>
    <glyph glyph-name="c" unicode="c"/>
    <glyph glyph-name="d" unicode="d"/>
    <glyph glyph-name="e" unicode="e"/>
    <glyph glyph-name="f" unicode="f"/>
    <glyph glyph-name="g" unicode="g"/>
    <glyph glyph-name="h" unicode="h"/>
    <glyph glyph-name="i" unicode="i"/>
    <glyph glyph-name="j" unicode="j"/>
    <glyph glyph-name="k" unicode="k"/>
    <glyph glyph-name="l" unicode="l"/>
    <glyph glyph-name="m" unicode="m"/>
    <glyph glyph-name="n" unicode="n"/>
    <glyph glyph-name="o" unicode="o"/>
    <glyph glyph-name="p" unicode="p"/>
    <glyph glyph-name="q" unicode="q"/>
    <glyph glyph-name="r" unicode="r"/>
    <glyph glyph-name="s" unicode="s"/>
    <glyph glyph-name="t" unicode="t"/>
    <glyph glyph-name="u" unicode="u"/>
    <glyph glyph-name="v" unicode="v"/>
    <glyph glyph-name="w" unicode="w"/>
    <glyph glyph-name="x" unicode="x"/>
    <glyph glyph-name="y" unicode="y"/>
    <glyph glyph-name="z" unicode="z"/>
    <glyph glyph-name="braceleft" unicode="{"/>
    <glyph glyph-name="bar" unicode="|"/>
    <glyph glyph-name="braceright" unicode="}"/>
    <glyph glyph-name="asciitilde" unicode="~"/>
    <glyph glyph-name="section" unicode="§"/>
    <glyph glyph-name="currency" unicode="¤"/>
    <glyph glyph-name="quotesingle" unicode="'" horiz-adv-x="127" d="M64 626c19 -1 32 -16 33 -38c0 -26 -12 -51 -28 -72c-7 -7 -20 -6 -26 0c-8 8 -7 18 0 26c5 7 10 16 13 24c-15 2 -26 15 -26 30c0 9 4 17 10 23c2 3 5 6 11 7c3 0 6 1 9 0v0h4z"/>
    <glyph glyph-name="quotedblleft" unicode="“"/>
    <glyph glyph-name="guillemotleft" unicode="«" horiz-adv-x="338" d="M110 333c22 -44 45 -87 67 -131s-44 -83 -66 -39c-26 50 -51 101 -77 151c-15 29 17 71 30 97s26 51 39 77c23 44 89 5 66 -39c-20 -38 -39 -77 -59 -116zM304 184c22 -44 -44 -83 -66 -39c-29 57 -58 113 -87 170c-16 31 20 79 34 106c15 28 29 57 44 85 c22 44 88 5 66 -38c-23 -45 -46 -89 -68 -134c25 -50 51 -100 77 -150z"/>
    <glyph glyph-name="guilsinglleft" unicode="‹"/>
    <glyph glyph-name="guilsinglright" unicode="›"/>
    <glyph glyph-name="endash" unicode="–"/>
    <glyph glyph-name="dagger" unicode="†"/>
    <glyph glyph-name="daggerdbl" unicode="‡"/>
    <glyph glyph-name="periodcentered" unicode="·"/>
    <glyph glyph-name="paragraph" unicode="¶"/>
    <glyph glyph-name="bullet" unicode="•"/>
    <glyph glyph-name="quotesinglbase" unicode="‚"/>
    <glyph glyph-name="quotedblbase" unicode="„"/>
    <glyph glyph-name="quotedblright" unicode="”"/>
    <glyph glyph-name="guillemotright" unicode="»" horiz-adv-x="338" d="M35 184c25 50 51 100 76 150c-22 45 -45 89 -68 134c-22 43 44 82 66 38c15 -28 29 -57 44 -85c14 -27 50 -75 34 -106c-29 -57 -58 -113 -86 -170c-23 -44 -89 -5 -66 39zM228 333c-19 39 -39 78 -59 116c-22 44 43 83 66 39c13 -26 26 -51 39 -77s45 -68 30 -97 c-25 -50 -51 -101 -77 -151c-22 -44 -88 -5 -66 39c23 44 45 87 67 131z"/>
    <glyph glyph-name="ellipsis" unicode="…" horiz-adv-x="546" d="M100 359c39 0 70 -31 70 -70s-31 -70 -70 -70s-70 31 -70 70s31 70 70 70zM273 359c39 0 70 -31 70 -70s-31 -70 -70 -70c-38 0 -70 31 -70 70s32 70 70 70zM446 359c39 0 70 -31 70 -70s-31 -70 -70 -70c-38 0 -70 31 -70 70s32 70 70 70z"/>
    <glyph glyph-name="perthousand" unicode="‰"/>
    <glyph glyph-name="grave" unicode="`"/>
    <glyph glyph-name="emdash" unicode="—" horiz-adv-x="489" d="M414 375c58 1 61 -66 4 -67c-249 -3 -101 1 -350 1c-37 0 -61 67 -4 67c249 0 101 -4 350 -1z"/>
    <glyph glyph-name="logicalnot" unicode="¬"/>
    <glyph glyph-name="mu" unicode="µ"/>
    <glyph glyph-name="trademark" unicode="™"/>
    <glyph glyph-name="plusminus" unicode="±"/>
    <glyph glyph-name="brokenbar" unicode="¦"/>
    <glyph glyph-name="degree" unicode="°"/>
    <glyph glyph-name="thorn" unicode="þ" horiz-adv-x="481"/>
    <glyph glyph-name="registered" unicode="®"/>
    <glyph glyph-name="copyright" unicode="©"/>
    <glyph glyph-name="Udieresis" unicode="Ü" horiz-adv-x="481"/>
    <glyph glyph-name="ydieresis" unicode="ÿ" horiz-adv-x="481"/>
    <glyph glyph-name="NULL"/>
    <glyph glyph-name="NULL"/>
    <glyph glyph-name="uni0002"/>
    <glyph glyph-name="_03"/>
    <glyph glyph-name="_04"/>
    <glyph glyph-name="_05"/>
    <glyph glyph-name="_06"/>
    <glyph glyph-name="_07"/>
    <glyph glyph-name="_08"/>
    <glyph glyph-name="uni0009" unicode="	"/>
    <glyph glyph-name="uni000A" unicode="
"/>
    <glyph glyph-name="_011"/>
    <glyph glyph-name="_012"/>
    <glyph glyph-name="CR" unicode=""/>
    <glyph glyph-name="_014"/>
    <glyph glyph-name="_015"/>
    <glyph glyph-name="_016"/>
    <glyph glyph-name="_017"/>
    <glyph glyph-name="_018"/>
    <glyph glyph-name="_019"/>
    <glyph glyph-name="_020"/>
    <glyph glyph-name="_021"/>
    <glyph glyph-name="_022"/>
    <glyph glyph-name="_023"/>
    <glyph glyph-name="_024"/>
    <glyph glyph-name="_025"/>
    <glyph glyph-name="_026"/>
    <glyph glyph-name="_027"/>
    <glyph glyph-name="_028"/>
    <glyph glyph-name="_029"/>
    <glyph glyph-name="_030"/>
    <glyph glyph-name="_031"/>
    <glyph glyph-name="_0127"/>
    <glyph glyph-name="uni0402" unicode="Ђ"/>
    <glyph glyph-name="uni0403" unicode="Ѓ"/>
    <glyph glyph-name="uni0453" unicode="ѓ"/>
    <glyph glyph-name="Euro" unicode="€" horiz-adv-x="424" d="M376 604c16 -11 24 -30 13 -49c-9 -15 -33 -24 -49 -12c-26 19 -67 45 -95 26s-34 -65 -36 -97c-2 -15 -2 -31 -3 -47h134c46 0 46 -71 0 -71h-134c1 -19 1 -37 3 -56v-8h109c46 0 46 -72 0 -72h-102c1 -8 3 -16 4 -24c5 -27 14 -65 22 -82l9 -18c1 -1 3 -3 4 -5 c1 -1 2 -3 3 -3c1 -2 3 -4 5 -6h1c1 -1 2 -2 3 -2c0 0 1 0 2 -1h1h3c-3 1 14 5 7 2c13 6 21 12 30 21c34 30 85 -20 51 -51c-19 -17 -44 -37 -70 -41c-70 -11 -107 48 -126 106c-10 34 -17 69 -21 104h-58c-46 0 -46 71 0 71c17 1 34 1 51 1c-1 16 -1 33 -2 49v14h-70 c-47 0 -47 72 0 72h68c1 42 4 84 17 122c14 42 43 88 91 97c49 10 96 -10 135 -40zM271 77c2 0 5 0 0 0z"/>
    <glyph glyph-name="uni0409" unicode="Љ"/>
    <glyph glyph-name="uni040A" unicode="Њ"/>
    <glyph glyph-name="uni040C" unicode="Ќ"/>
    <glyph glyph-name="uni040B" unicode="Ћ"/>
    <glyph glyph-name="uni040F" unicode="Џ"/>
    <glyph glyph-name="uni0452" unicode="ђ"/>
    <glyph glyph-name="_0152"/>
    <glyph glyph-name="uni0459" unicode="љ"/>
    <glyph glyph-name="uni045A" unicode="њ"/>
    <glyph glyph-name="uni045C" unicode="ќ"/>
    <glyph glyph-name="uni045B" unicode="ћ"/>
    <glyph glyph-name="uni045F" unicode="џ"/>
    <glyph glyph-name="uni00A0" unicode=" "/>
    <glyph glyph-name="uni040E" unicode="Ў"/>
    <glyph glyph-name="uni045E" unicode="ў"/>
    <glyph glyph-name="uni0408" unicode="Ј"/>
    <glyph glyph-name="uni0490" unicode="Ґ"/>
    <glyph glyph-name="uni0401" unicode="Ё" horiz-adv-x="239" d="M177 67c43 0 43 -63 0 -63h-114c-18 0 -33 14 -33 31v545c0 18 15 32 33 32h114c43 0 43 -63 0 -63h-81v-247h69c42 0 42 -63 0 -63h-69v-172h81zM70 638c-18 0 -33 14 -33 32c0 17 15 31 33 31h4c18 0 33 -14 33 -31c0 -18 -15 -32 -33 -32h-4zM162 673 c-18 0 -33 15 -33 32s15 32 33 32h4c18 0 33 -15 33 -32s-15 -32 -33 -32h-4z"/>
    <glyph glyph-name="uni0404" unicode="Є"/>
    <glyph glyph-name="uni00AD" unicode="­"/>
    <glyph glyph-name="uni0407" unicode="Ї"/>
    <glyph glyph-name="uni0406" unicode="І"/>
    <glyph glyph-name="uni0456" unicode="і"/>
    <glyph glyph-name="uni0491" unicode="ґ"/>
    <glyph glyph-name="uni0451" unicode="ё"/>
    <glyph glyph-name="uni2116" unicode="№"/>
    <glyph glyph-name="uni0454" unicode="є"/>
    <glyph glyph-name="uni0458" unicode="ј"/>
    <glyph glyph-name="uni0405" unicode="Ѕ"/>
    <glyph glyph-name="uni0455" unicode="ѕ"/>
    <glyph glyph-name="uni0457" unicode="ї"/>
    <glyph glyph-name="uni0410" unicode="А" horiz-adv-x="331" d="M305 33c5 -42 -65 -42 -69 0c-5 52 -11 105 -16 158h-115c-8 -53 -15 -106 -20 -158c-5 -42 -74 -42 -70 0c8 76 18 151 30 226c19 120 39 244 86 356c6 14 17 25 34 25h48c21 0 33 -16 35 -34zM115 258h98c-10 100 -20 200 -30 301c-34 -97 -52 -201 -68 -301z"/>
    <glyph glyph-name="uni0411" unicode="Б" horiz-adv-x="239" d="M209 216c0 -30 0 -60 -3 -89c-3 -24 -6 -52 -18 -73c-30 -47 -80 -57 -128 -49c-3 1 -6 2 -8 3c-12 4 -22 14 -22 32v556c0 18 14 34 30 34h91c40 0 39 -68 0 -68h-60v-166c39 -2 80 -15 99 -57c17 -37 18 -82 19 -123zM141 104c9 40 8 83 7 124c-1 26 -1 59 -10 77 c-4 7 -7 13 -17 17s-20 5 -30 5v-257c21 -1 44 8 50 34z"/>
    <glyph glyph-name="uni0412" unicode="В" horiz-adv-x="251" d="M208 191c6 -18 7 -38 8 -57c0 -21 2 -45 -5 -65c-24 -62 -92 -74 -151 -65c-8 2 -14 5 -18 10c-7 6 -12 14 -12 26v567c0 8 2 15 6 20c3 9 11 17 24 19c35 6 77 5 108 -15c51 -33 50 -90 52 -144c3 -76 4 -186 -55 -240c20 -13 36 -31 43 -56zM149 538 c-1 18 -7 29 -19 36c-10 4 -20 6 -31 6v-295c28 7 40 39 47 70c8 42 7 85 5 127c0 19 -2 38 -2 56zM146 91c5 23 4 57 -3 78c-5 18 -24 28 -44 36v-135h12c3 1 17 4 21 6c8 4 12 7 14 15z"/>
    <glyph glyph-name="uni0413" unicode="Г" horiz-adv-x="214" d="M98 33c0 -43 -68 -43 -68 0v561c0 18 15 34 34 34h112c43 0 43 -68 0 -68h-78v-527z"/>
    <glyph glyph-name="uni0414" unicode="Д" horiz-adv-x="375" d="M352 53c8 -10 11 -26 3 -37c-22 -28 -43 -57 -64 -86c-11 -15 -29 -22 -46 -12c-15 8 -23 31 -12 46c8 12 17 24 26 36h-179c7 -22 15 -44 22 -66c13 -41 -52 -59 -65 -18c-12 37 -24 73 -35 108c-7 24 10 40 29 41c4 1 7 2 11 2h18c6 66 14 133 22 199 c15 115 30 235 68 346c5 14 17 25 32 25h38c20 0 33 -16 34 -34c15 -179 29 -358 44 -536h28v0c2 0 4 -1 6 -1c9 -1 15 -6 20 -13zM149 260c-8 -64 -16 -129 -21 -193h102c-12 151 -24 302 -37 454c-21 -85 -33 -174 -44 -261z"/>
    <glyph glyph-name="uni0415" unicode="Е" horiz-adv-x="240" d="M178 68c43 0 43 -67 0 -67h-115c-18 0 -33 16 -33 34v570c0 18 15 33 33 33h115c43 0 43 -67 0 -67h-82v-257h69c43 0 43 -67 0 -67h-69v-179h82z"/>
    <glyph glyph-name="uni0416" unicode="Ж" horiz-adv-x="418" d="M320 606c11 43 78 25 67 -19c-23 -93 -54 -183 -114 -259c2 -2 3 -5 4 -7l99 -282c15 -42 -52 -60 -67 -19c-21 60 -47 168 -68 228l5 -222c1 -44 -70 -44 -70 0l4 223c-22 -61 -47 -165 -68 -226c-15 -41 -82 -23 -67 18l99 282c0 2 1 3 2 4c-60 76 -92 166 -115 260 c-11 44 57 62 67 19c18 -71 40 -155 78 -216v206c0 45 70 45 70 0v-200c36 59 57 141 74 210z"/>
    <glyph glyph-name="uni0417" unicode="З" horiz-adv-x="287" d="M180 406c59 -46 80 -138 77 -211c-2 -39 -12 -81 -32 -115c-33 -54 -88 -80 -152 -80c-42 1 -42 67 0 66c44 -1 79 15 99 55c6 13 11 27 14 43c2 6 3 12 4 18v1v3c1 3 1 6 1 9c2 54 -12 167 -82 175c-35 4 -48 55 -9 65c38 9 78 62 67 102c-1 7 -4 14 -10 18 c-4 3 -7 5 -11 6c0 1 -2 1 -3 2c-2 0 -8 1 -4 1c-5 1 -10 1 -15 0c-15 -2 -30 -8 -44 -15c-38 -17 -71 40 -33 57c35 17 79 34 118 19c31 -12 59 -36 66 -70c11 -52 -11 -111 -51 -149z"/>
    <glyph glyph-name="uni0418" unicode="И" horiz-adv-x="293" d="M197 618c10 36 66 29 66 -9v-575c0 -42 -67 -42 -67 0v341c-34 -114 -67 -227 -100 -341c-11 -35 -66 -29 -66 9v566c0 43 67 43 67 0v-332c33 114 67 227 100 341z"/>
    <glyph glyph-name="uni0419" unicode="Й" horiz-adv-x="301" d="M203 620c10 36 68 29 68 -8v-580c0 -41 -70 -41 -70 0v344c-34 -115 -68 -229 -103 -344c-11 -35 -68 -29 -68 9v571c0 42 69 42 69 0v-335c35 114 69 229 104 343zM192 668c-13 -13 -36 -12 -49 0c-14 13 -13 34 0 47l66 69c13 14 36 13 49 0c14 -13 13 -33 0 -46 c-22 -24 -44 -47 -66 -70z"/>
    <glyph glyph-name="uni041A" unicode="К" horiz-adv-x="336" d="M341 -70c43 -11 25 -78 -19 -67c-38 10 -64 46 -79 81c-19 44 -31 89 -42 136c-13 61 -24 189 -101 200v-253c0 -43 -70 -43 -70 0v571c0 45 70 45 70 0v-188c37 60 58 128 75 197c10 44 78 25 67 -18c-22 -88 -52 -173 -104 -246c77 -28 105 -127 122 -205 c9 -46 19 -92 34 -137c7 -18 14 -36 26 -53c2 -4 7 -9 12 -14l4 -2c1 -1 4 -2 5 -2z"/>
    <glyph glyph-name="uni041B" unicode="Л" horiz-adv-x="274" d="M269 52c2 -18 -4 -36 -23 -41c-16 -5 -39 5 -42 23c-12 89 -26 178 -40 266c-10 63 -21 126 -33 189c-1 4 -2 9 -2 13l-57 -459c-2 -18 -13 -33 -33 -33c-17 0 -36 15 -34 33c23 185 46 369 68 554c3 18 14 33 34 33c15 0 35 3 49 -4c10 -7 15 -17 19 -28 c6 -17 9 -35 13 -52c13 -64 24 -128 34 -192c17 -101 32 -201 47 -302z"/>
    <glyph glyph-name="uni041C" unicode="М" horiz-adv-x="348" d="M252 624c11 36 66 30 66 -9v-581c0 -43 -68 -43 -68 0v358c-13 -43 -26 -85 -40 -128c-10 -33 -55 -32 -65 0c-16 47 -31 94 -47 141v-374c0 -43 -68 -43 -68 0v584c0 40 55 45 67 9c26 -80 53 -160 80 -240z"/>
    <glyph glyph-name="uni041D" unicode="Н" horiz-adv-x="273" d="M175 600c0 44 68 44 68 0v-566c0 -43 -68 -43 -68 0v249c-26 -1 -52 0 -77 3v-252c0 -43 -68 -43 -68 0v566c0 44 68 44 68 0v-245c25 -4 54 -5 77 -4v249z"/>
    <glyph glyph-name="uni041E" unicode="О" horiz-adv-x="268" d="M252 447c7 -51 8 -103 4 -155c-4 -45 -8 -93 -21 -137c-10 -35 -17 -76 -40 -108c-27 -39 -68 -49 -112 -28c-9 4 -12 9 -17 15c-17 23 -23 55 -29 82c-8 39 -13 78 -17 117c-6 65 -13 134 -8 200c3 45 9 92 26 134c13 32 33 72 72 79c45 8 81 -29 101 -64 c25 -42 35 -88 41 -135zM126 73c5 0 7 4 8 5c5 7 12 21 16 31c10 28 19 57 24 86c19 93 25 197 2 289c-7 30 -21 80 -52 96h-1l-5 -5c-9 -14 -15 -29 -20 -44c-23 -78 -19 -158 -14 -237c3 -45 6 -90 14 -135c6 -29 11 -61 26 -86h2z"/>
    <glyph glyph-name="uni041F" unicode="П" horiz-adv-x="271" d="M207 628c19 0 34 -16 34 -34v-563c0 -43 -67 -43 -67 0v529h-76v-529c0 -43 -68 -43 -68 0v563c0 18 15 34 34 34h143z"/>
    <glyph glyph-name="uni0420" unicode="Р" horiz-adv-x="254" d="M222 477c2 -50 6 -110 -13 -158c-10 -26 -24 -49 -50 -62c-19 -10 -40 -11 -61 -9v-212c0 -43 -68 -43 -68 0v569c0 15 8 25 19 30c4 2 9 4 15 4c49 3 105 -5 134 -50c21 -32 22 -75 24 -112zM151 368c5 37 5 76 2 114c0 12 -2 31 -3 38c-2 13 -4 24 -9 32 c-4 5 -11 12 -22 15c-7 2 -14 3 -21 3v-254h1c12 -2 27 -3 35 6c11 12 14 30 17 46z"/>
    <glyph glyph-name="uni0421" unicode="С" horiz-adv-x="283" d="M186 174c12 41 77 24 65 -18c-11 -37 -18 -80 -40 -112c-27 -39 -67 -50 -110 -29c-8 4 -13 8 -17 16c-13 26 -21 52 -27 77c-8 39 -13 78 -17 117c-6 66 -13 135 -9 202c3 39 8 79 19 117c8 29 20 65 44 85c75 61 136 -41 156 -103c14 -41 -51 -59 -64 -18 c-6 19 -14 39 -27 55c-6 7 -14 15 -19 18c0 -1 -1 -2 -3 -4c-3 -4 -10 -15 -13 -23c-21 -54 -28 -114 -26 -171c2 -58 5 -117 11 -175c5 -44 9 -100 32 -138h3c0 0 3 1 4 2c6 6 12 16 15 25c10 25 16 51 23 77zM142 582c-2 -1 -1 -1 -2 -1c1 -1 0 -1 2 1z"/>
    <glyph glyph-name="uni0422" unicode="Т" horiz-adv-x="288" d="M250 627c44 0 44 -68 0 -68h-64v-529c0 -43 -68 -43 -68 0v529h-80c-43 0 -43 68 0 68h212z"/>
    <glyph glyph-name="uni0423" unicode="У" horiz-adv-x="330" d="M232 600c3 44 71 44 68 0c-5 -88 -19 -177 -39 -263c-15 -68 -34 -135 -65 -197c-25 -51 -61 -104 -114 -130c-39 -18 -74 40 -35 59c44 22 72 66 94 114c17 37 30 76 41 116c-6 1 -12 4 -18 10c-71 79 -107 177 -132 279c-11 43 55 61 66 18c20 -84 47 -166 102 -233 c16 77 27 149 32 227z"/>
    <glyph glyph-name="uni0424" unicode="Ф" horiz-adv-x="363" d="M358 348c0 -39 0 -88 -25 -121c-26 -34 -62 -48 -103 -50v-142c0 -44 -70 -44 -70 0v143c-46 5 -90 22 -110 67c-19 46 -20 96 -20 145c0 35 -1 71 8 106c10 39 34 73 71 90c16 8 33 13 51 15v23c0 45 70 45 70 0v-21c10 0 19 -1 27 -4c106 -34 99 -159 101 -251z M113 278c8 -20 26 -27 47 -29v280c-62 -12 -59 -76 -59 -131c0 -40 -2 -82 12 -120zM281 280c10 36 6 76 4 113c-1 38 4 88 -20 121c-5 6 -13 10 -20 14c-2 1 -10 4 -8 4h-7v-285c12 1 24 3 33 9c8 5 15 14 18 24z"/>
    <glyph glyph-name="uni0425" unicode="Х" horiz-adv-x="345" d="M323 47c7 -18 -8 -38 -25 -43c-20 -4 -35 7 -43 25c-26 63 -53 126 -79 189c-19 -64 -37 -128 -56 -192c-13 -42 -81 -25 -68 18l81 276c-37 89 -74 177 -111 266c-7 18 8 38 24 43c21 6 36 -7 43 -25c25 -59 50 -119 75 -178c19 63 38 127 56 191c13 43 81 24 68 -19 c-27 -92 -54 -183 -81 -275c39 -92 77 -184 116 -276z"/>
    <glyph glyph-name="uni0426" unicode="Ц" horiz-adv-x="334" d="M303 0c15 -82 -79 -95 -143 -96c-46 -1 -46 67 0 67c22 1 46 0 67 8c6 2 11 4 7 11c-6 9 -23 9 -33 9h-4h-132c-19 0 -35 15 -35 33v577c0 43 71 43 71 0v-543h20h1c23 0 53 2 82 0v548c0 44 70 44 70 0v-569c14 -10 25 -24 29 -45z"/>
    <glyph glyph-name="uni0427" unicode="Ч" horiz-adv-x="263" d="M172 611c0 43 61 43 61 0v-575c0 -42 -61 -42 -61 0v219c-48 0 -84 49 -104 103c-28 77 -38 164 -38 247c0 43 60 43 60 0c1 -69 8 -140 29 -206c7 -23 17 -50 32 -67c8 -8 14 -12 21 -11v290z"/>
    <glyph glyph-name="uni0428" unicode="Ш" horiz-adv-x="403" d="M306 612c0 44 67 44 67 0v-578c0 -10 -4 -18 -10 -24c-5 -6 -13 -10 -23 -10h-276c-19 0 -34 16 -34 34v578c0 44 68 44 68 0v-544h70v544c0 44 67 44 67 0v-544h71v544z"/>
    <glyph glyph-name="uni0429" unicode="Щ" horiz-adv-x="434" d="M403 54c31 -26 35 -78 7 -107c-25 -26 -65 -30 -99 -31c-54 -2 -109 1 -163 2c-43 0 -43 67 0 66c43 0 86 -1 129 -2c26 0 55 -2 80 8c1 0 3 2 5 4c1 3 1 7 -3 9c-9 5 -18 6 -28 6h-268c-18 0 -33 15 -33 34v568c0 43 67 43 67 0v-535h70v535c0 43 67 43 67 0v-535h25h1 c14 0 28 1 43 2v533c0 43 67 43 67 0v-540c12 -4 23 -9 33 -17z"/>
    <glyph glyph-name="uni042A" unicode="Ъ" horiz-adv-x="336" d="M306 212c0 -29 0 -59 -4 -88c-3 -24 -6 -53 -20 -73c-33 -47 -89 -57 -143 -49c-3 0 -6 1 -8 3c-15 2 -27 13 -27 32v520h-41c-44 0 -44 68 0 68h75c19 0 34 -15 34 -34v-199c44 -2 91 -14 112 -57c19 -37 21 -82 22 -123zM229 100c10 40 10 83 8 124c-1 26 -1 59 -11 77 c-5 8 -8 13 -19 17c-12 4 -23 5 -35 6v-258c25 0 51 9 57 34z"/>
    <glyph glyph-name="uni042B" unicode="Ы" horiz-adv-x="375" d="M204 338c19 -38 20 -84 21 -126c1 -30 1 -60 -3 -90c-3 -24 -6 -53 -21 -74c-34 -48 -91 -52 -146 -44c-17 3 -25 15 -25 28v5v564c0 45 69 45 69 0v-207c42 -3 85 -17 105 -56zM148 98c10 41 10 85 8 126c-2 27 -1 60 -12 79c-4 7 -8 13 -19 17c-9 3 -17 4 -26 5v-256 c22 0 43 6 49 29zM276 601c0 45 69 45 69 0v-564c0 -11 -4 -19 -10 -24c-6 -6 -14 -10 -24 -10c-11 0 -19 4 -25 10c-6 5 -10 13 -10 24v564z"/>
    <glyph glyph-name="uni042C" unicode="Ь" horiz-adv-x="252" d="M222 217c0 -29 0 -59 -4 -88c-3 -24 -6 -52 -20 -73c-34 -47 -89 -54 -143 -46c-8 2 -13 6 -18 12c-4 6 -7 13 -7 21v553c0 44 68 44 68 0v-200c41 -3 83 -17 103 -56c18 -37 20 -82 21 -123zM145 105c11 40 10 83 8 124c-1 26 -1 59 -11 77c-4 7 -8 13 -19 17 c-8 3 -17 4 -25 5v-253c21 0 42 8 47 30z"/>
    <glyph glyph-name="uni042D" unicode="Э" horiz-adv-x="325" d="M253 609c48 -57 44 -136 39 -206c-4 -70 -13 -141 -28 -209c-13 -56 -29 -128 -74 -168c-50 -45 -109 -22 -151 22c-29 31 18 78 47 47c5 -6 11 -12 17 -17c7 -6 14 -11 24 -12v0v0c1 0 3 -1 4 0h3l1 1c2 1 4 2 5 3s3 2 3 2c2 2 10 11 8 9c7 10 13 20 18 31 c19 40 31 89 39 138c-37 -1 -75 -2 -113 -2c-43 -1 -43 65 0 66c41 0 82 1 123 2c7 50 11 102 11 153c0 33 -3 86 -35 104c-11 6 -24 8 -38 4c-21 -5 -39 -14 -57 -25c-36 -22 -69 35 -33 57c54 34 138 58 187 0z"/>
    <glyph glyph-name="uni042E" unicode="Ю" horiz-adv-x="406" d="M370 450c7 -52 8 -105 5 -158c-3 -47 -7 -96 -19 -141c-11 -37 -18 -78 -39 -111c-26 -40 -67 -52 -110 -31c-9 5 -13 11 -16 18c-15 22 -22 50 -28 76c-8 39 -13 78 -17 117c-2 19 -4 39 -5 59c-15 -2 -29 -1 -44 0v-243c0 -43 -67 -43 -67 0v555c0 44 67 44 67 0v-244 c6 0 13 -1 20 -1c6 0 13 -1 19 0c0 24 0 48 1 71c2 46 8 94 23 138c12 33 31 78 69 86c44 10 79 -24 100 -59c23 -40 34 -86 41 -132zM294 183c18 93 25 197 4 290c-7 32 -20 84 -51 102c-1 0 -1 1 -2 1l-3 -3c-9 -14 -15 -29 -20 -45c-23 -79 -19 -160 -14 -241 c3 -45 6 -91 14 -136c5 -29 10 -61 24 -85c3 -1 5 -1 2 -2c4 1 3 0 6 4c7 7 13 20 17 31c9 27 17 56 23 84z"/>
    <glyph glyph-name="uni042F" unicode="Я" horiz-adv-x="296" d="M261 604c3 -5 5 -11 5 -19v-550c0 -42 -66 -42 -66 0v240c-63 -23 -72 -138 -84 -194c-10 -45 -22 -89 -41 -131c-15 -32 -38 -64 -74 -73c-40 -11 -58 54 -16 64c6 2 5 2 9 5c6 6 8 9 12 16c10 17 17 35 24 53c13 43 23 87 32 132c10 51 27 110 60 151 c-13 10 -24 25 -32 45c-16 45 -15 99 -12 146c3 36 6 73 30 101c29 35 80 39 123 37c16 -1 26 -11 30 -23zM145 489c-3 -34 -4 -70 2 -104c7 -30 18 -45 50 -40h3v215c-10 0 -19 -2 -28 -5s-14 -7 -16 -12c-4 -6 -3 -3 -5 -10c-1 -5 -3 -9 -3 -14c-1 -4 -3 -20 -3 -30z"/>
    <glyph glyph-name="uni0430" unicode="а" horiz-adv-x="491"/>
    <glyph glyph-name="uni0431" unicode="б" horiz-adv-x="491"/>
    <glyph glyph-name="uni0432" unicode="в" horiz-adv-x="491"/>
    <glyph glyph-name="uni0433" unicode="г" horiz-adv-x="491"/>
    <glyph glyph-name="uni0434" unicode="д" horiz-adv-x="491"/>
    <glyph glyph-name="uni0435" unicode="е" horiz-adv-x="491"/>
    <glyph glyph-name="uni0436" unicode="ж" horiz-adv-x="491"/>
    <glyph glyph-name="uni0437" unicode="з" horiz-adv-x="491"/>
    <glyph glyph-name="uni0438" unicode="и" horiz-adv-x="491"/>
    <glyph glyph-name="uni0439" unicode="й" horiz-adv-x="491"/>
    <glyph glyph-name="uni043A" unicode="к" horiz-adv-x="491"/>
    <glyph glyph-name="uni043B" unicode="л" horiz-adv-x="491"/>
    <glyph glyph-name="uni043C" unicode="м" horiz-adv-x="491"/>
    <glyph glyph-name="uni043D" unicode="н" horiz-adv-x="491"/>
    <glyph glyph-name="uni043E" unicode="о" horiz-adv-x="491"/>
    <glyph glyph-name="uni043F" unicode="п" horiz-adv-x="491"/>
    <glyph glyph-name="uni0440" unicode="р" horiz-adv-x="491"/>
    <glyph glyph-name="uni0441" unicode="с" horiz-adv-x="491"/>
    <glyph glyph-name="uni0442" unicode="т" horiz-adv-x="491"/>
    <glyph glyph-name="uni0443" unicode="у" horiz-adv-x="491"/>
    <glyph glyph-name="uni0444" unicode="ф" horiz-adv-x="491"/>
    <glyph glyph-name="uni0445" unicode="х" horiz-adv-x="491"/>
    <glyph glyph-name="uni0446" unicode="ц" horiz-adv-x="491"/>
    <glyph glyph-name="uni0447" unicode="ч" horiz-adv-x="491"/>
    <glyph glyph-name="uni0448" unicode="ш" horiz-adv-x="491"/>
    <glyph glyph-name="uni0449" unicode="щ" horiz-adv-x="491"/>
    <glyph glyph-name="uni044A" unicode="ъ" horiz-adv-x="491"/>
    <glyph glyph-name="uni044B" unicode="ы" horiz-adv-x="491"/>
    <glyph glyph-name="uni044C" unicode="ь" horiz-adv-x="491"/>
    <glyph glyph-name="uni044D" unicode="э" horiz-adv-x="491"/>
    <glyph glyph-name="uni044E" unicode="ю" horiz-adv-x="491"/>
    <glyph glyph-name="uni044F" unicode="я" horiz-adv-x="491"/>
    <glyph glyph-name="_3" horiz-adv-x="682" d="M583 72c4 -4 6 -11 1 -16c-35 -28 -83 -34 -127 -33c-50 1 -99 10 -148 21c-41 9 -81 22 -115 49c-30 23 -54 53 -70 86c-30 59 -41 125 -41 190c1 51 7 106 30 152c37 77 95 150 170 192c67 38 142 52 217 59c6 2 14 -4 13 -11c0 -2 -2 -5 -3 -6 c-21 -35 -59 -136 -71 -207c-11 -66 -16 -136 -2 -202c25 9 68 16 73 -13c4 -19 -8 -29 -24 -35c6 -4 9 -10 9 -19c-1 -23 -29 -29 -50 -31c0 -40 8 -77 40 -105c31 -26 67 -45 98 -71zM453 43c36 -1 77 1 108 21c-32 25 -70 44 -99 74c-32 33 -38 76 -36 121c0 5 5 9 10 9 c2 0 44 3 39 11c-6 11 -30 8 -40 7c-13 -2 -17 16 -4 19c13 4 53 4 59 18c9 19 -50 4 -56 1c-5 -2 -12 1 -14 7c-18 75 -12 155 1 230c12 65 32 131 64 190c-64 -7 -128 -20 -185 -51c-73 -40 -127 -106 -166 -179c-25 -47 -31 -104 -31 -157c0 -66 13 -136 48 -193 c18 -29 41 -55 70 -73c32 -20 67 -29 103 -37c42 -9 86 -17 129 -18zM352 470c-2 -40 -15 -95 18 -125c5 -4 -3 -10 -7 -6c-35 31 -24 85 -21 126c-20 1 -40 1 -59 2c-7 0 -6 10 0 9c21 0 43 -1 64 -1c3 0 5 -3 5 -5zM297 441h4c4 0 7 -4 7 -8s-4 -7 -8 -7h-3 c-4 0 -8 4 -7 8c0 4 3 7 7 7z"/>
    <glyph glyph-name="_4" horiz-adv-x="2278" d="M1208 290c41 -47 -25 -95 -71 -116c-72 -32 -164 -28 -234 8c1 1 2 2 3 4c-2 -1 -4 -1 -7 -2c2 -1 3 -1 4 -2c-19 -20 -51 -28 -77 -34c-42 -9 -86 -13 -129 -12c-40 1 -83 5 -121 20c-23 9 -46 24 -51 48c2 1 4 1 6 1c-2 2 -4 3 -6 5v-6c-23 -3 -47 -6 -71 -3 c-30 4 -57 15 -81 33c-23 18 -42 39 -64 57c-28 23 -59 41 -94 50c-41 11 -84 13 -127 11c-15 -1 -30 -3 -45 -4c-3 0 -4 1 -5 3c0 3 2 6 5 6l11 6c65 12 256 56 284 137c1 3 1 6 2 9c0 3 1 6 2 9c6 28 18 54 38 75c23 26 57 39 92 38c26 0 52 -6 75 -15c6 -2 5 -1 9 2 c3 2 5 4 8 6c4 4 9 7 14 10c12 7 24 14 36 19c54 23 117 36 176 30c27 -3 54 -9 77 -22c4 -3 8 -5 11 -7c-1 -1 -1 -1 1 0c1 0 2 0 2 1c4 1 8 3 12 5c9 4 18 7 27 10c68 25 198 55 227 -32l-6 -3c3 -1 5 -2 8 -3c-1 2 -1 4 -2 6c38 17 82 20 112 -12c21 -22 30 -56 11 -80 c-4 1 -8 1 -12 0c2 -2 3 -5 4 -8l8 8c50 -7 39 -97 33 -127c-10 -45 -37 -123 -95 -129z"/>
    <glyph glyph-name="_5" horiz-adv-x="1490" d="M822 162c4 -3 4 -9 0 -14c-3 -5 -10 -8 -15 -4c-33 11 -66 21 -95 40c-26 -17 -48 -40 -76 -54c-8 -4 -16 5 -15 13c3 31 7 62 16 92c-24 20 -50 37 -76 54c-9 6 -3 19 6 21c31 5 62 0 94 3c1 32 6 63 3 95c-1 9 11 17 19 10c25 -22 41 -53 55 -82c31 5 62 8 91 17 c11 4 21 -8 13 -18c-22 -27 -41 -57 -62 -85c-3 -3 -7 7 -3 -2c1 -2 2 -5 3 -7c5 -9 10 -18 14 -28c9 -17 18 -34 28 -51zM646 163c20 14 38 32 60 44c5 3 9 3 14 0c20 -15 44 -24 68 -33c-12 23 -23 47 -35 70c-2 4 0 9 2 12c17 22 32 45 49 67c-23 -4 -47 -7 -71 -12 c-5 -1 -10 3 -12 7c-9 21 -20 42 -33 60c-1 -25 -4 -51 -5 -77c0 -5 -6 -9 -10 -9c-23 -4 -47 -3 -70 -3c19 -13 37 -26 54 -41c4 -4 5 -9 4 -14c-8 -23 -12 -47 -15 -71zM363 530c-7 3 -6 12 0 15c6 2 59 16 59 21c-4 20 -7 39 -14 59c-2 5 4 13 11 9c16 -8 29 -21 41 -34 c15 -16 48 8 64 18c6 4 14 -2 11 -9c-9 -21 -16 -42 -24 -63c-3 -6 -5 -2 2 -10c4 -5 8 -9 12 -14c9 -9 18 -19 27 -28c3 -1 4 -5 3 -9s-5 -7 -9 -5c-22 1 -45 1 -66 8c-7 3 -34 -40 -40 -45c-5 -5 -13 -4 -14 4c-3 20 -7 40 -6 60c1 8 -50 21 -57 23zM434 551 c-14 -6 -30 -9 -45 -13c15 -5 29 -11 43 -18c3 -1 4 -4 4 -8c-1 -16 1 -32 3 -48c10 13 19 27 31 39c2 3 5 3 9 2c16 -6 33 -8 49 -9c-12 13 -23 26 -34 39c-2 2 -2 5 -1 8c7 17 13 34 20 52c-15 -8 -29 -14 -44 -21c-3 -1 -7 0 -9 3c-10 11 -20 23 -31 32 c3 -16 6 -33 10 -50c1 -3 -2 -6 -5 -8zM919 582c3 -2 4 -6 3 -9c-1 -4 -6 -7 -10 -6c-22 2 -47 2 -69 10c-6 2 -36 -43 -43 -50c-4 -4 -11 0 -12 5c-3 19 -7 38 -6 58c0 18 -46 25 -61 30c-6 3 -5 12 1 14c19 9 41 10 60 19c8 3 -11 61 -13 65c-2 6 4 13 11 10 c16 -9 30 -22 43 -36c15 -16 51 9 67 19c6 4 14 -2 11 -9c-9 -22 -16 -44 -25 -65c-3 -8 -5 -4 3 -12c4 -4 8 -9 12 -14c9 -10 18 -20 28 -29zM589 243c3 0 5 -3 5 -7c1 -2 0 -5 -2 -7c-164 -132 -407 -37 -555 75c-7 5 1 17 8 13c46 -25 99 -30 150 -23 c-48 25 -91 62 -109 115c-2 6 4 12 11 10c19 -8 38 -14 58 -21c-31 33 -51 75 -62 118c-3 9 7 14 13 8c119 -132 281 -314 479 -281h4zM95 282c135 -86 324 -147 463 -58c-178 -12 -326 138 -440 264c15 -42 41 -79 77 -105c7 -5 0 -16 -8 -13c-26 10 -53 18 -80 28 c22 -47 69 -79 116 -101c7 -3 5 -13 -2 -14c-41 -9 -85 -10 -126 -1z"/>
    <glyph glyph-name="_6" horiz-adv-x="1197" d="M700 456c18 -58 9 -124 -29 -173c-27 -35 -64 -60 -106 -75c-84 -30 -188 -26 -267 18c-35 20 -66 48 -82 86c-18 43 -13 90 2 133c10 30 29 54 51 76c20 21 43 40 68 55c70 40 153 50 229 22c63 -23 114 -77 134 -142zM575 229c41 18 78 46 98 87c34 65 22 145 -24 202 c-51 64 -135 91 -215 77c-41 -8 -80 -24 -114 -49c-34 -26 -73 -63 -87 -105s-20 -88 0 -129c18 -36 49 -62 84 -78c78 -37 179 -40 258 -5zM543 499c6 1 8 -7 3 -7c-23 -4 -45 -6 -68 -7c19 -30 35 -63 43 -99c1 -2 -2 -5 -4 -4c-39 8 -78 5 -117 0c-2 0 -5 3 -4 5 c11 26 21 53 26 81c-24 0 -48 0 -72 -3c-5 0 -5 8 0 8c26 3 51 3 77 3c3 0 4 -3 4 -5c-5 -28 -14 -54 -25 -81c36 5 71 7 106 1c-9 34 -25 66 -44 96c-2 3 0 6 3 6c24 0 49 2 72 6zM371 443c2 -1 3 -3 3 -5c0 -1 0 -2 -1 -4c0 -2 -3 -3 -5 -2c-2 0 -2 2 -2 4v4c1 2 3 3 5 3z M523 465c2 -1 3 -3 3 -5c-1 -2 -3 -3 -5 -3c-1 0 -2 0 -3 1c-3 0 -4 2 -3 4c0 3 3 3 5 3h3zM341 312c4 -3 0 -10 -4 -7c-20 16 -39 32 -59 49c-3 4 2 10 6 6c19 -17 38 -33 57 -48zM282 672v1c-4 16 10 30 27 25c10 -2 11 -14 16 -22s11 -16 19 -20c6 -2 10 -3 14 -7 c17 -15 -4 -41 -23 -34c-26 10 -43 30 -53 56v1zM299 691c-8 -3 -12 -9 -10 -17c7 -18 18 -34 34 -44c6 -4 34 -19 33 4c-1 12 -11 12 -19 18c-10 7 -17 16 -22 27c-3 7 -7 15 -16 12zM578 627c-8 5 -9 16 -6 24c8 26 33 44 58 51h1h1c14 2 31 -11 25 -27 c-5 -11 -14 -11 -24 -16c-8 -4 -16 -10 -20 -19c-3 -4 -5 -9 -9 -13c-7 -7 -19 -5 -26 0zM591 668c-5 -7 -25 -34 -4 -37c13 -3 15 9 21 17c7 9 15 16 26 20c7 2 19 6 15 16c-2 8 -8 12 -16 10c-16 -5 -31 -13 -42 -26zM154 568v1c-10 15 3 36 22 30c6 -2 9 -5 14 -9 c10 -8 21 -14 32 -17c12 -4 26 -5 35 -15c10 -13 2 -34 -15 -34c-14 0 -33 10 -47 16c-15 6 -28 15 -40 27zM166 591c-8 -3 -10 -9 -6 -18c15 -15 32 -25 52 -32c10 -3 51 -18 40 8c-5 14 -34 16 -46 22c-8 3 -15 7 -21 13c-5 5 -11 10 -19 7zM172 394 c-40 -9 -82 -11 -118 12c0 1 -1 1 -1 1v0c-19 17 5 45 26 32s48 -13 72 -7c11 2 29 12 40 5c9 -4 16 -15 13 -25c-5 -13 -20 -15 -32 -18zM60 433c-7 -6 -8 -14 -2 -20c25 -16 54 -20 83 -16c15 2 29 5 43 9c8 2 16 9 10 18c-4 6 -9 9 -16 7c-21 -7 -45 -13 -68 -10 c-9 1 -19 2 -27 7c-7 3 -15 11 -23 5zM194 298c21 2 34 -25 16 -37c-32 -22 -69 -32 -108 -24h-1h-1c-17 7 -22 31 -3 40c3 2 7 1 11 1c13 -3 26 -4 38 -1c11 2 22 6 31 12c5 3 11 9 17 9zM183 254c8 4 32 14 27 27c-7 18 -22 4 -33 -1c-15 -8 -32 -13 -49 -13 c-7 1 -25 6 -30 2c-10 -7 -5 -21 5 -25c27 -5 55 -2 80 10zM268 204c20 11 37 -9 29 -29c-9 -22 -27 -38 -50 -41l-2 -1h-1c-14 1 -25 15 -19 30c4 9 10 9 19 12c14 5 12 22 24 29zM287 172c2 4 5 9 5 14c-1 8 -7 16 -16 13c-8 -3 -9 -11 -13 -18c-3 -4 -6 -8 -10 -11 c-5 -2 -12 -2 -16 -5c-12 -8 -4 -24 8 -24c19 2 34 15 42 31zM672 549c-21 1 -24 26 -10 37c2 3 6 4 10 4c11 1 21 4 29 12c7 6 13 19 24 18c17 -1 26 -17 19 -32c-1 0 -1 -1 -1 -1c0 -1 0 -1 -1 -1c-17 -22 -42 -39 -70 -37zM663 576c-3 -13 2 -20 13 -19c7 0 15 1 22 4 c16 6 28 17 38 30c8 13 -9 30 -20 16c-4 -5 -8 -9 -12 -13c-8 -7 -17 -10 -27 -12c-5 0 -10 -2 -14 -6zM724 482c13 5 28 1 42 2c13 2 24 5 36 11c3 1 7 1 10 1c18 -4 26 -24 11 -36l-1 -1h-1c-16 -9 -34 -14 -53 -15c-12 -1 -34 -5 -46 1c-14 7 -13 31 2 37zM772 477 c-11 -1 -40 5 -48 -5c-5 -6 -7 -20 6 -21h27c22 1 42 5 61 15c10 7 4 20 -5 22c-8 1 -10 -2 -16 -4c-8 -4 -16 -6 -25 -7zM858 330c21 -3 26 -29 8 -38c-1 -1 -1 -1 -2 -1h-1c-43 -12 -87 4 -123 28c-10 7 -20 13 -16 27c2 10 14 16 24 15c7 -1 14 -7 20 -11 c10 -6 20 -12 31 -16c12 -4 25 -8 38 -7c6 1 14 5 21 3zM862 299c9 3 10 14 3 20s-15 2 -23 1c-8 -2 -17 -1 -26 1c-21 5 -41 15 -60 27c-7 5 -19 8 -24 -2c-5 -12 5 -16 12 -20c11 -7 22 -13 33 -18c27 -12 56 -18 85 -9zM774 184c4 0 8 -2 11 -4c15 -14 3 -36 -15 -37h-1 h-1c-37 5 -69 22 -93 51c-6 8 -11 18 -3 28c6 8 16 11 26 7c7 -3 11 -11 16 -16c7 -7 15 -14 24 -19c11 -5 23 -9 36 -10zM769 151c12 0 23 22 7 25c-10 1 -20 2 -30 6c-15 6 -30 16 -41 28c-5 6 -10 16 -19 12c-11 -4 -13 -14 -5 -22c8 -10 16 -19 26 -26 c19 -13 39 -21 62 -23zM617 124c7 -3 12 -8 12 -16c0 -15 -13 -26 -28 -22l-1 1v0c-22 10 -38 34 -37 58c1 17 22 33 35 17c10 -12 4 -30 19 -38zM621 104c1 9 -5 12 -11 15c-7 4 -11 14 -12 21c-1 6 -2 16 -7 18c-14 3 -20 -2 -20 -13c0 -6 2 -12 4 -18 c5 -15 14 -26 28 -33c8 -2 17 1 18 10zM462 649c-19 16 -19 55 -13 78v1v1c7 14 27 24 37 7c9 -14 -2 -31 2 -47c3 -10 9 -20 6 -30c-4 -13 -23 -18 -32 -10zM480 711c2 14 -17 33 -24 15c-3 -17 -4 -33 1 -49c2 -8 4 -22 14 -24c5 0 12 1 14 6c5 10 -4 24 -5 35 c-1 6 -1 11 0 17zM426 147c5 17 33 24 39 3c4 -13 -3 -30 -9 -42c-7 -16 -18 -32 -32 -43c-9 -8 -23 -22 -37 -20c-9 2 -19 10 -19 20c0 16 17 20 27 29c16 15 26 31 30 52c0 1 1 1 1 1zM449 112c4 8 14 29 8 37c-7 10 -22 7 -24 -5c-4 -18 -12 -36 -26 -49 c-6 -7 -14 -13 -22 -18c-10 -5 -13 -21 1 -23c8 -2 13 2 19 6c19 13 35 30 44 52z"/>
    <glyph glyph-name="_7" horiz-adv-x="2588" d="M1274 346c0 -3 -2 -6 -6 -7v0c-56 -6 -116 -19 -159 -58c-30 -27 -49 -63 -80 -89c-37 -32 -88 -49 -136 -41c-22 4 -48 15 -58 34c-13 -20 -36 -34 -58 -44c-37 -16 -79 -23 -120 -23c-56 0 -143 12 -166 72c-29 -54 -110 -58 -165 -49c-43 7 -134 36 -122 95h7 c-1 2 -3 5 -5 8c-1 -3 -2 -6 -2 -8c-68 1 -154 16 -166 96c-14 88 63 170 151 156c0 -1 -1 -3 -1 -5c2 2 5 3 7 4c-2 1 -4 1 -6 1c30 120 192 105 277 53c51 62 150 62 223 52c29 -4 58 -10 86 -19c26 -8 49 -22 73 -34v0c2 1 4 1 6 2c9 4 17 8 26 11c28 9 59 16 89 14 c32 -3 59 -16 82 -39c1 -2 3 -3 4 -5c11 -11 22 -23 31 -36l27 -33c13 -17 27 -37 43 -54c30 -31 65 -56 111 -49c3 0 6 -2 7 -5v0z"/>
    <glyph glyph-name="_8" horiz-adv-x="916" d="M477 443c10 -77 -70 -148 -129 -184c-89 -54 -206 -86 -265 -178c-3 -7 -10 -8 -16 -4c-6 2 -9 9 -5 16c54 116 -19 206 -35 319c-7 52 2 112 48 143c37 24 87 27 126 3c38 -23 58 -59 67 -100c23 33 61 54 103 55c45 2 100 -19 106 -70zM105 340c9 -35 19 -69 15 -105 c-1 -17 -4 -33 -7 -48c36 41 92 53 135 93c12 11 86 102 26 96c-35 -4 -62 -29 -78 -59c-2 -4 -6 -1 -6 2c4 32 1 75 -19 102c-18 27 -67 33 -73 -10c-3 -24 2 -47 7 -71z"/>
    <glyph glyph-name="_11" horiz-adv-x="1281" d="M620 230h2c4 0 4 6 1 6h-2c-4 1 -4 -5 -1 -6zM599 229h1c5 0 5 5 2 6h-2c-4 0 -4 -6 -1 -6zM205 457h-1c-4 1 -5 -5 -1 -6h2c4 0 4 6 0 6zM185 458c-4 0 -5 -6 -1 -6c4 -1 4 5 1 6zM613 186c-10 -4 -15 7 -16 16c10 1 20 2 29 4c0 -9 -4 -16 -13 -20zM629 213 c-11 -3 -23 -4 -35 -5c-2 -1 -2 -2 -2 -4c-1 0 -1 -1 -1 -2c1 -12 8 -24 21 -22c14 1 21 17 21 29c0 2 -2 4 -4 4zM155 444c-8 5 -10 13 -8 21c1 4 -4 6 -5 3c-4 -12 -1 -22 9 -29c3 -2 7 3 4 5zM741 81c-13 -2 -60 -1 -73 15c3 5 3 11 0 20c-2 4 -7 3 -9 0 c-3 -8 -4 -14 -1 -20c-12 -12 -52 -6 -63 -4c-28 6 -75 27 -63 63c2 4 -2 8 -6 6c-27 -11 -60 10 -66 38c-3 16 10 24 23 27c10 3 19 -1 28 -5c7 -3 18 -9 23 -16c3 -5 11 -1 8 4c-4 7 -12 13 -21 18c1 1 2 2 2 4c4 46 54 65 95 64c45 -1 92 -25 97 -73c-4 1 -7 1 -11 2 c-15 2 -29 -4 -36 -18c-8 -15 -6 -33 7 -44c18 -17 65 -16 55 18c-2 6 -10 2 -8 -4c5 -17 -16 -18 -28 -15c-18 5 -25 20 -20 38c11 36 64 6 81 -8c16 -15 29 -38 29 -61s-20 -45 -43 -49zM280 549c-2 1 -5 2 -8 3c-1 1 -2 1 -3 1c69 72 188 43 260 -7 c79 -55 101 -154 73 -243c-17 -1 -34 -6 -49 -15c78 158 -117 353 -273 261zM301 476c-1 -3 1 -7 4 -6c32 8 37 -28 29 -51c-22 21 -59 32 -80 11c-33 -34 23 -78 53 -46c4 4 -3 9 -7 5c-15 -16 -44 -6 -47 15c-2 11 7 22 17 26s23 1 33 -3c19 -7 39 -23 41 -44 c2 -15 -4 -30 -15 -41c-22 -21 -59 -25 -89 -20c-26 3 -59 19 -58 50c0 5 -7 7 -9 2c-40 -77 -171 55 -87 89c3 1 3 7 -1 8c-16 4 -36 11 -44 26c-6 10 -2 21 6 29c23 21 56 10 71 -14c4 -4 10 1 7 6c-8 12 -19 20 -31 25c0 26 30 35 52 34c11 -1 24 -5 32 -13 c10 -11 8 -25 4 -38c-2 -4 4 -8 7 -4c38 50 133 23 112 -46zM234 557c112 123 322 67 399 -68c33 -58 35 -126 10 -187v-1c-8 2 -16 3 -24 3h-10c13 44 16 91 3 136c-13 47 -43 85 -82 113c-75 52 -198 77 -267 2c-9 3 -19 3 -29 2zM328 654c54 16 118 9 171 -7 c95 -29 166 -105 188 -201c7 -31 11 -66 6 -97l-6 -39c-2 -7 -4 -16 -5 -24c-10 6 -22 11 -34 14h1c30 74 20 155 -28 219c-46 60 -118 100 -193 111c-77 10 -153 -16 -203 -75c-10 -2 -20 -7 -28 -13c25 54 74 95 131 112zM789 153c-9 31 -36 56 -66 66c0 1 1 2 1 3 c-3 26 -15 45 -33 58v1v2c0 5 2 10 2 14l6 33c4 21 5 42 4 63c-2 46 -14 92 -37 133c-48 86 -139 134 -235 143c-50 5 -99 1 -144 -22c-40 -20 -73 -53 -94 -93c-1 5 -3 9 -6 13c-8 11 -23 17 -37 18c-27 4 -63 -9 -65 -40c-16 3 -32 -1 -45 -14c-10 -10 -13 -22 -9 -35 c6 -16 24 -25 41 -30c-72 -44 50 -172 102 -107c11 -55 103 -56 144 -35c27 13 43 43 32 72c-1 6 -5 11 -9 16v0c12 28 4 71 -30 68c5 26 -4 51 -25 65c153 88 344 -111 256 -264c-15 -11 -26 -28 -28 -49v-2c-9 5 -19 7 -27 6c-18 -2 -35 -12 -36 -32c-1 -35 39 -60 71 -53 c-6 -40 41 -61 74 -68c15 -3 51 -6 67 6c13 -14 47 -18 62 -18c45 0 77 38 64 82z"/>
    <glyph glyph-name="_12" horiz-adv-x="840" d="M420 525c38 -63 -4 -153 -41 -206c-56 -80 -144 -151 -160 -251c0 -8 -6 -11 -12 -10c-6 0 -12 4 -11 12c4 119 -93 169 -149 260c-25 41 -40 96 -12 140c23 35 64 56 106 50c41 -6 72 -29 95 -61c8 37 32 69 68 86c38 18 92 21 116 -20zM141 298c20 -27 41 -52 52 -85 c5 -15 9 -29 11 -44c17 49 60 80 81 130c6 14 36 120 -13 92c-28 -16 -42 -48 -45 -80c0 -3 -4 -3 -5 0c-9 29 -28 64 -55 81c-26 15 -69 3 -59 -36c7 -22 19 -40 33 -58zM410 453c5 53 -24 99 -82 78c-46 -17 -77 -58 -71 -108c1 -13 -16 -18 -22 -7c-21 44 -62 89 -116 82 c-41 -6 -76 -37 -77 -80c-1 -70 60 -119 102 -168c24 -27 43 -55 56 -85c-2 15 -6 31 -12 45c-11 30 -28 52 -46 76c-20 27 -49 62 -37 97c8 23 41 28 60 16c29 -17 49 -50 61 -81c-11 29 60 118 78 70c12 -32 -4 -79 -22 -107c-28 -43 -65 -76 -75 -125c0 -4 1 -8 1 -12 c2 -6 4 -12 5 -18c50 117 184 193 197 327z"/>
    <glyph glyph-name="_14" horiz-adv-x="325" d="M104 76c-12 -20 -25 -39 -44 -52c-3 -2 -7 4 -3 6c1 1 2 2 3 2v2c15 26 12 53 4 80c-7 24 -14 48 -20 72c-11 46 -17 92 -17 139c0 3 4 4 6 1c32 -43 54 -96 65 -148c7 -33 9 -69 -1 -100c0 1 1 2 2 2c9 18 15 37 20 55c10 41 16 85 8 127c-10 58 -31 113 -38 172 c-6 54 6 108 22 160c-2 -1 -3 -1 -5 0c-53 24 -45 94 -36 141c1 4 8 5 10 1c5 -10 9 -20 14 -31c5 12 12 22 20 32c3 3 8 1 9 -2c4 -13 8 -25 12 -38c11 10 20 22 29 34c2 5 9 3 9 -2c1 -25 11 -49 8 -75c-5 -35 -28 -55 -62 -61h-1c-19 -62 -30 -123 -17 -188 c11 -55 33 -110 36 -166c3 -41 -4 -84 -17 -123c0 -1 -1 -2 -1 -2c27 43 51 87 79 129c2 3 8 1 7 -3c-20 -63 -59 -115 -101 -164zM116 722c-7 -9 -13 -19 -17 -30c-1 -4 -7 -5 -9 -1c-5 8 -9 18 -13 27c-2 -13 -4 -27 -4 -41c7 -4 12 -11 17 -18c4 -6 2 -8 8 2c2 2 4 5 6 7 c4 5 7 10 12 14c0 1 2 1 2 0c2 -3 14 -30 16 -28c12 8 24 17 35 26h1c-2 12 -4 23 -6 34c-8 -11 -17 -22 -29 -30c-3 -2 -7 0 -8 3c-4 12 -7 24 -11 35zM73 673c1 -30 10 -57 38 -70l2 -2v0c1 1 2 2 4 2c34 6 54 28 54 63c0 3 0 7 -1 10c-12 -9 -25 -19 -38 -28 c-1 0 -2 0 -2 1c-3 8 -6 15 -10 22c-5 10 -8 2 -13 -5c-2 -3 -8 -15 -12 -16c-2 0 -4 0 -4 1c-5 8 -10 17 -18 22zM132 122c22 29 42 59 56 93c-19 -31 -37 -62 -56 -93zM34 314c1 -41 7 -81 16 -121c2 32 7 72 -5 102c-3 7 -7 13 -11 19zM52 183c1 -6 3 -13 5 -19 c2 -10 5 -19 8 -29c10 47 5 92 -10 137c4 -29 -1 -61 -3 -87v-2zM67 128c8 -25 14 -51 8 -76c1 2 3 4 4 5c25 37 20 88 10 129c-7 29 -17 58 -30 84c15 -46 20 -93 8 -142zM229 339c21 -44 28 -92 19 -140c-3 -17 -8 -33 -15 -48l-3 -6c0 -1 0 -2 -1 -2 c-11 -20 -25 -39 -43 -55c-31 -28 -67 -50 -107 -62c-5 -1 -7 6 -2 7c41 12 80 35 110 65c17 18 32 36 40 57c12 28 14 60 1 89c-8 19 -22 36 -36 51c-1 -1 -2 0 -2 1c0 0 -1 1 -1 2l-11 11c-4 3 -7 7 -11 10c-1 0 -2 1 -2 2v0c-30 28 -63 60 -60 103c0 3 4 5 6 3v0 c0 1 2 2 3 0c2 -3 5 -6 7 -9c46 -41 103 -90 123 -150c-2 9 -3 18 -6 28c-6 24 -17 46 -28 68c-17 34 -32 67 -33 105c-2 0 -3 1 -4 3v0c-39 30 -49 78 -28 122c1 2 4 3 7 1c11 -5 17 -15 24 -25c6 10 12 22 19 33c2 4 6 3 8 0c8 -11 11 -24 13 -38c9 11 16 23 21 36 c3 5 9 1 10 -3c3 -26 9 -59 -4 -84c-12 -23 -37 -34 -60 -43c2 -49 26 -88 46 -132zM151 584c-4 -11 -6 -21 -7 -32h1c10 -8 22 -14 30 -24c1 -1 14 15 15 17c0 1 2 1 3 1c2 -3 20 -25 23 -23c6 3 14 6 20 10c1 1 2 0 3 -1c3 16 2 33 0 49c-7 -11 -14 -22 -22 -32 c-3 -3 -8 -1 -9 3c-2 13 -3 26 -9 38c-6 -11 -12 -22 -19 -33c-3 -3 -7 -3 -9 0c-6 10 -11 20 -20 27zM144 548c0 -25 11 -50 34 -67l1 -1c21 8 47 19 56 41c1 3 3 7 3 10v0c-7 -6 -16 -8 -23 -13h-2c-2 3 -21 24 -21 23c-5 -6 -11 -10 -14 -18c0 -1 -1 -2 -2 0 c-9 10 -21 17 -32 25zM137 395c-1 0 -1 0 -1 1v-1v0h1zM112 417c0 -34 24 -60 50 -84c-8 25 -21 49 -36 71c-5 5 -10 9 -14 13zM167 328c6 -6 13 -12 20 -18c-8 29 -22 60 -47 78c12 -19 21 -39 27 -60zM240 231c2 -7 3 -13 3 -19c0 1 1 2 1 3c-1 1 -1 2 -1 3 c4 61 -37 111 -82 154c15 -19 25 -43 30 -67c3 -2 5 -5 8 -7c18 -20 35 -42 41 -67z"/>
    <glyph glyph-name="_15" horiz-adv-x="566" d="M371 672c23 3 47 0 46 -30c-2 -30 -32 -32 -56 -26c18 -32 23 -88 -13 -102c-20 -8 -39 6 -45 26c-3 12 -4 24 -4 37c-18 -24 -49 -44 -70 -21c-9 9 -14 22 -15 35c-12 -19 -20 -41 -22 -66c-4 -55 11 -109 31 -160c11 -28 24 -56 39 -82c-6 29 -5 60 -3 89c0 2 1 3 3 4 c3 1 6 0 8 -1c1 10 5 21 6 32c1 3 5 5 7 2c3 -5 6 -9 10 -12c2 18 6 35 14 51c2 3 6 3 7 0s3 -5 5 -8c12 13 19 30 31 44c1 1 5 1 6 -1c38 -85 -94 -137 -80 -220c0 -1 0 -2 -1 -3c6 -10 11 -19 17 -29c13 -21 25 -45 26 -71c0 -25 -6 -50 -18 -71c-3 -9 -8 -17 -14 -24 c-2 -1 -4 -1 -5 0c-2 1 -3 3 -2 4c0 1 0 1 1 1c4 6 8 13 11 19c1 1 1 2 2 3c7 24 1 53 -3 75c-4 23 -12 45 -24 65c-15 27 -46 72 -82 81c11 -6 18 -17 12 -33c-8 -23 -28 -15 -45 -6c14 -28 10 -74 -30 -71c-43 4 -28 52 -14 81c-29 -15 -83 -25 -79 17c3 37 45 38 75 30 c-11 15 -15 38 2 47c11 5 29 -1 35 -11c3 -5 5 -12 5 -18l5 -1c1 1 2 1 2 2c8 7 24 13 33 3c10 -11 2 -23 -11 -31c43 -3 80 -53 99 -86c14 -27 23 -53 27 -83c2 -11 3 -23 3 -36c8 25 10 50 0 75c-8 24 -23 44 -36 66c-26 43 -48 89 -63 137c-1 0 -1 1 -2 2v1 c-1 0 -1 0 -2 1c-22 35 -58 26 -94 30c-3 0 -5 4 -3 6c4 4 7 8 11 12c-11 0 -22 1 -33 1c-3 1 -5 4 -3 7c3 3 5 6 8 9c-10 4 -26 8 -30 17c-4 11 7 15 16 18c-9 17 -5 35 -4 53c1 3 6 5 7 2c17 -31 37 -58 63 -81c21 -18 43 -35 60 -56c-13 43 -20 91 -9 135 c5 22 15 40 28 55c1 3 2 6 4 9c11 17 28 27 47 32c-14 17 -24 40 -28 60c-4 18 -6 47 17 54c18 6 32 -17 39 -31c3 -7 7 -15 9 -24c10 32 30 66 64 55c23 -8 40 -28 30 -52c-6 -15 -17 -28 -28 -38zM167 433c3 -1 6 -2 8 -3c-16 16 -35 30 -51 46c-20 19 -36 40 -49 63 c-2 -14 -2 -28 6 -40c1 -2 -1 -5 -3 -6c-4 -1 -21 -5 -12 -11c3 -2 7 -4 10 -5c6 -3 12 -5 18 -8c2 -1 2 -4 0 -6s-4 -5 -6 -7c12 -1 24 -2 35 -2c4 -1 5 -5 2 -7c-4 -3 -7 -7 -11 -11c18 -1 36 1 53 -3zM131 330c-3 0 -5 0 -7 -1c2 -5 4 -9 6 -14c4 4 8 7 11 11 c-3 2 -6 4 -10 4zM110 312c0 -5 1 -9 4 -12c3 3 7 6 11 10c-3 5 -6 10 -8 15c-4 -3 -6 -8 -7 -13zM129 291c2 0 4 0 6 1c-2 3 -5 7 -7 11l-9 -9c3 -2 6 -3 10 -3zM141 295l8 14c0 5 -1 8 -3 12c-4 -5 -8 -9 -12 -13c2 -4 5 -9 7 -13zM268 367c-3 3 -4 3 -2 1v-15 c-1 -9 -1 -19 -1 -29c1 -12 2 -23 4 -35c5 29 24 54 41 77c23 30 55 68 41 108c-10 -14 -17 -31 -30 -43c-2 -1 -5 -1 -6 1s-3 4 -4 6c-7 -16 -9 -32 -11 -50c0 -3 -4 -5 -6 -2c-4 4 -8 7 -12 11c-2 -10 -5 -20 -4 -30c0 -3 -4 -4 -6 -3s-3 2 -4 3zM317 666 c-4 0 -7 0 -11 -1l6 -12c4 4 8 8 11 12c-2 0 -4 1 -6 1zM288 644c0 -4 2 -7 4 -10c5 5 10 9 14 14c-2 5 -4 9 -7 14c-5 -3 -9 -7 -11 -13v-3v-2zM310 624c3 0 6 1 9 1c-3 6 -6 11 -9 16c-4 -4 -9 -8 -13 -12c4 -3 8 -4 13 -5zM336 648c0 3 0 6 -1 9c-2 2 -3 3 -5 4 c-4 -5 -9 -10 -14 -15c3 -6 6 -11 9 -17c6 4 11 11 11 19z"/>
    <glyph glyph-name="_16" horiz-adv-x="481"/>
    <glyph glyph-name="_17" horiz-adv-x="481"/>
    <glyph glyph-name="_18" horiz-adv-x="481"/>
    <glyph glyph-name="_19" horiz-adv-x="481"/>
    <glyph glyph-name="_20" horiz-adv-x="481"/>
    <glyph glyph-name="_21" horiz-adv-x="481"/>
    <glyph glyph-name="_22" horiz-adv-x="481"/>
    <glyph glyph-name="_23" horiz-adv-x="481"/>
    <glyph glyph-name="_24" horiz-adv-x="481"/>
    <glyph glyph-name="_25" horiz-adv-x="481"/>
    <glyph glyph-name="_26" horiz-adv-x="481"/>
    <glyph glyph-name="_27" horiz-adv-x="481"/>
    <glyph glyph-name="_28" horiz-adv-x="481"/>
    <glyph glyph-name="_29" horiz-adv-x="481"/>
    <glyph glyph-name="_30" horiz-adv-x="481"/>
    <glyph glyph-name="_31" horiz-adv-x="481"/>
    <glyph glyph-name="_127" horiz-adv-x="481"/>
    <glyph glyph-name="_152" horiz-adv-x="481"/>
    </font>
</defs>
</svg>
